<svg id="Layer_1" data-name="Layer 1" xmlns="http://www.w3.org/2000/svg" viewBox="0 0 138.51 80"><defs><style>.cls-1{fill:#dae2f2;}.cls-2{fill:#518de5;}.cls-3{fill:none;stroke:#174691;stroke-linecap:round;stroke-miterlimit:10;stroke-width:2px;}</style></defs><path class="cls-1" d="M69.46,77a37.17,37.17,0,1,1,37.16-37.17A37.17,37.17,0,0,1,69.46,77"/><path class="cls-2" d="M62.49,28.28,80.32,12.89a2.43,2.43,0,0,1,4,1.84v8.38C97.42,24.15,107,28.4,107,41.7c0,6.23-4,12.4-8.46,15.62a1.82,1.82,0,0,1-2.79-2C99.61,42.92,95.31,38.26,84.34,37v8.53a2.44,2.44,0,0,1-4,1.84L62.49,32A2.42,2.42,0,0,1,62.49,28.28ZM46.26,32l17.82,15.4a2.44,2.44,0,0,0,4-1.84V43.91L57,34.36a5.13,5.13,0,0,1-.92-1,5.71,5.71,0,0,1,1-7.53l9.79-8.45a3.52,3.52,0,0,0,1.21-2.65h0a2.43,2.43,0,0,0-4-1.84L46.26,28.28A2.42,2.42,0,0,0,46.26,32Z"/><path class="cls-3" d="M69.2,33.16l-5.62-4.85a2.44,2.44,0,0,1,0-3.68L81.41,9.23a2.44,2.44,0,0,1,4,1.84v8.39c13.09,1,22.69,5.29,22.69,18.59,0,6.22-4,12.39-8.44,15.61a1.81,1.81,0,0,1-2.85-1.89c3.91-12.47-.39-17.16-11.4-18.43v8.52a2.43,2.43,0,0,1-4,1.84l-7.15-6.17M47.35,28.31,65.18,43.7a2.43,2.43,0,0,0,4-1.84h0A3.53,3.53,0,0,0,68,39.21L58.2,30.76a5.41,5.41,0,0,1-1.26-1.52,5.69,5.69,0,0,1,1.26-7.06L68,13.72a3.5,3.5,0,0,0,1.22-2.65h0a2.44,2.44,0,0,0-4-1.84L47.35,24.63A2.44,2.44,0,0,0,47.35,28.31Z"/><path class="cls-3" d="M64.84,78.74,18.52,78.6H2.4a.76.76,0,0,1-.73-1.12L8.05,67.3a10,10,0,0,0,1.06-5.19V45.52a6,6,0,0,1,6-5.89H25.34"/><path class="cls-3" d="M64.84,78.74l8-.09a5.91,5.91,0,0,0,5.94-5.89V66.28"/><path class="cls-3" d="M126.91,17.24V9.42a8.25,8.25,0,0,0-8.3-8.16H49.77"/><path class="cls-3" d="M49.77,60.88l64.12.72h22.32a1.05,1.05,0,0,0,1-1.55l-8.82-15a13.73,13.73,0,0,1-1.48-7.19V25.23"/><path class="cls-3" d="M49.77,60.88l-11-.11a8.18,8.18,0,0,1-8.21-8.16V9.42a8.26,8.26,0,0,1,8.31-8.16l7.83,0,3.1,0"/><line class="cls-3" x1="18.2" y1="53.08" x2="25.31" y2="53.08"/><line class="cls-3" x1="18.2" y1="63.61" x2="33.2" y2="63.61"/><line class="cls-3" x1="18.2" y1="72.51" x2="55.58" y2="72.51"/></svg>