<svg id="Layer_1" data-name="Layer 1" xmlns="http://www.w3.org/2000/svg" viewBox="0 0 98.52 80"><defs><style>.cls-1{fill:#f9e5f0;}.cls-2{fill:#ce82ae;}.cls-3{fill:none;stroke-linecap:round;stroke-width:2px;}.cls-3,.cls-4{stroke:#8e3263;stroke-miterlimit:10;}.cls-4{fill:#8e3263;stroke-width:0.5px;}</style></defs><path class="cls-1" d="M49.26,77.13A37.17,37.17,0,1,1,86.42,40,37.16,37.16,0,0,1,49.26,77.13"/><path class="cls-2" d="M33.11,57.92A27.31,27.31,0,0,0,54.36,47.79a1.29,1.29,0,0,0-1.24-2.07A21.43,21.43,0,0,1,38.51,6a1.29,1.29,0,0,0-.4-2.38,27.93,27.93,0,0,0-5-.46,27.36,27.36,0,0,0,0,54.72Z"/><line class="cls-3" x1="74.72" y1="35.26" x2="38.88" y2="35.26"/><path class="cls-3" d="M45.93,78.77H96.6a.62.62,0,0,0,.59-.9L92,69.07a8.09,8.09,0,0,1-.86-4.21V40a4.84,4.84,0,0,0-4.87-4.78H79.87"/><path class="cls-3" d="M45.93,78.77l-6.47-.06a4.79,4.79,0,0,1-4.81-4.78V62.5"/><line class="cls-3" x1="56.75" y1="47.47" x2="81.08" y2="47.47"/><line class="cls-3" x1="48.29" y1="57.92" x2="81.08" y2="57.92"/><line class="cls-3" x1="44.58" y1="67.55" x2="81.08" y2="67.55"/><path class="cls-4" d="M45.39,17.93h-8a.42.42,0,0,0-.42.42v.84a.42.42,0,0,0,.42.43h6.9l-8,8.72a.87.87,0,0,0-.19.54v.84a.84.84,0,0,0,.84.84h8.84a.42.42,0,0,0,.42-.42V29.3a.42.42,0,0,0-.42-.42H38.06l8-8.73a.86.86,0,0,0,.19-.53v-.85A.85.85,0,0,0,45.39,17.93Zm5-14.31H45a.42.42,0,0,0-.42.42v.84A.42.42,0,0,0,45,5.3h4.1l-5.18,6.59a.83.83,0,0,0-.19.52v.47a.84.84,0,0,0,.85.84h6.31a.42.42,0,0,0,.42-.42v-.84a.42.42,0,0,0-.42-.42h-5L51.1,5.45a.82.82,0,0,0,.18-.52V4.46A.85.85,0,0,0,50.44,3.62Zm9.26,13.1v-.47a.84.84,0,0,0-.84-.84H53.39a.41.41,0,0,0-.42.42v.84a.42.42,0,0,0,.42.42h4.1L52.3,23.68a.88.88,0,0,0-.18.52v.47a.85.85,0,0,0,.85.84h6.31a.42.42,0,0,0,.42-.42v-.84a.42.42,0,0,0-.42-.42h-5l5.19-6.59a.84.84,0,0,0,.18-.52Z"/><path class="cls-3" d="M25.64,12.49A21.48,21.48,0,0,1,33.94,4a1.28,1.28,0,0,0-.4-2.37,27.89,27.89,0,0,0-5-.45,27.3,27.3,0,1,0,21.2,44.48,1.28,1.28,0,0,0-1.23-2.06A21.4,21.4,0,0,1,24.35,15.4"/></svg>