<svg id="Layer_1" data-name="Layer 1" xmlns="http://www.w3.org/2000/svg" viewBox="0 0 74.42 80"><defs><style>.cls-1{fill:#dedaf7;}.cls-2{fill:#8181f7;}.cls-3{fill:none;stroke:#2b239b;stroke-linecap:round;stroke-miterlimit:10;stroke-width:2px;}.cls-4{fill:#2b239b;}</style></defs><path class="cls-1" d="M37.16,77.16A37.16,37.16,0,1,1,74.33,40,37.16,37.16,0,0,1,37.16,77.16"/><path class="cls-2" d="M59.47,54.09H58.24V43H53.33V54.09H48.41V43H43.5V54.09H38.59V43H33.67V54.09H32.44a3.69,3.69,0,0,0-3.68,3.69V75.9H63.15V57.78A3.69,3.69,0,0,0,59.47,54.09Z"/><path class="cls-3" d="M66.15,66.73c-2.21,0-2.47-2.52-5.88-2.52s-3.69,2.52-5.89,2.52-2.48-2.52-5.9-2.52-3.72,2.52-5.88,2.52-2.46-2.52-5.89-2.52-3.68,2.52-5.9,2.52V60.42a3.79,3.79,0,0,1,3.79-3.78h1.26V45.28h5V56.64H46V45.28h5V56.64h5V45.28H61.1V56.64h1.26a3.79,3.79,0,0,1,3.79,3.78Zm0,11.08H30.81V66.73M66.15,75.9v1.91m0-11.08v4.06M38.38,44a2.51,2.51,0,0,1-2.52-2.52c0-2.44,2.52-1.81,2.52-5.05.95,0,2.53,2.33,2.53,4.42S39.78,44,38.38,44Zm10.1,0A2.51,2.51,0,0,1,46,41.49c0-2.44,2.52-1.81,2.52-5.05,1,0,2.53,2.33,2.53,4.42S49.88,44,48.48,44Zm10.1,0a2.52,2.52,0,0,1-2.53-2.52c0-2.44,2.53-1.81,2.53-5.05.94,0,2.52,2.33,2.52,4.42S60,44,58.58,44Z"/><path class="cls-3" d="M25.59,78.08H11.31A5.15,5.15,0,0,1,6.18,73V21.05"/><path class="cls-3" d="M6.18,13.26V6.56a5.15,5.15,0,0,1,5.13-5.13H41.88A5.15,5.15,0,0,1,47,6.56v26.2"/><line class="cls-3" x1="6.18" y1="21.05" x2="6.18" y2="19.56"/><path class="cls-3" d="M42.78,34.37V10a3.24,3.24,0,0,0-3.15-3.3H37.51a.92.92,0,0,0-.9.94v.15a2.28,2.28,0,0,1-2.22,2.32H18.79a2.27,2.27,0,0,1-2.21-2.32V7.67a.92.92,0,0,0-.9-.94H13.55A3.24,3.24,0,0,0,10.4,10v11"/><path class="cls-3" d="M10.4,21.05V70a3.24,3.24,0,0,0,3.15,3.3H25.34"/><line class="cls-3" x1="21.96" y1="6" x2="26.98" y2="6"/><line class="cls-3" x1="30.73" y1="6" x2="30.73" y2="6"/><path class="cls-3" d="M62.65,23.34l3.18,1.25a.52.52,0,0,1,0,1L62.65,26.8a.52.52,0,0,0-.29.29l-1.25,3.17a.51.51,0,0,1-1,0l-1.25-3.17a.49.49,0,0,0-.29-.29l-3.18-1.25a.52.52,0,0,1,0-1l3.18-1.25a.49.49,0,0,0,.29-.29l1.25-3.17a.51.51,0,0,1,1,0l1.25,3.17A.52.52,0,0,0,62.65,23.34Z"/><path class="cls-4" d="M35.87,21l2.28.9a.37.37,0,0,1,0,.69l-2.28.9a.35.35,0,0,0-.21.2L34.76,26a.37.37,0,0,1-.69,0l-.9-2.29a.35.35,0,0,0-.21-.2l-2.28-.9a.37.37,0,0,1,0-.69L33,21a.36.36,0,0,0,.21-.21l.9-2.28a.37.37,0,0,1,.69,0l.9,2.28A.36.36,0,0,0,35.87,21Z"/><path class="cls-3" d="M27.45,31.81l4.7,1.85a.76.76,0,0,1,0,1.41l-4.7,1.85a.77.77,0,0,0-.42.43l-1.86,4.7a.76.76,0,0,1-1.41,0l-1.85-4.7a.79.79,0,0,0-.43-.43l-4.7-1.85a.76.76,0,0,1,0-1.41l4.7-1.85a.76.76,0,0,0,.43-.43l1.85-4.7a.76.76,0,0,1,1.41,0L27,31.38A.74.74,0,0,0,27.45,31.81Z"/></svg>