<?xml version="1.0" encoding="UTF-8"?>
<!-- Generator: Adobe Illustrator 25.2.1, SVG Export Plug-In . SVG Version: 6.00 Build 0)  -->
<svg xmlns="http://www.w3.org/2000/svg" xmlns:xlink="http://www.w3.org/1999/xlink" version="1.1" id="Layer_1" x="0px" y="0px" viewBox="0 0 32 32" style="enable-background:new 0 0 32 32;" xml:space="preserve">
<style type="text/css">
	.st0{fill:none;stroke:#587CFF;stroke-width:2.5;stroke-linecap:round;stroke-linejoin:round;stroke-miterlimit:10;}
	.st1{fill:#8DBBFF;}
</style>
<g>
	<polyline class="st0" points="28.1,3 27.4,9.8 20.6,8.6  "></polyline>
	<path class="st0" d="M29,16c0,7.2-5.8,13-13,13S3,23.2,3,16S8.8,3,16,3c4.9,0,9.2,2.7,11.4,6.8"></path>
</g>
<g>
	<path class="st1" d="M8.4,20.4l3.3-3.6c1.2-1.3,1.5-1.8,1.5-2.3c0-0.5-0.4-0.8-1-0.8c-0.6,0-1.4,0.3-2,0.7l0.4-2.4   c0.5-0.3,1.3-0.5,2.1-0.5c1.7,0,3.1,0.9,3.1,2.5c0,1.2-0.7,2.1-1.6,3.1l-0.9,1l0,0h2.1l-0.4,2.1L8.4,20.4L8.4,20.4z"></path>
	<path class="st1" d="M15.7,18.7l5.5-7h2.2L22.5,17h1.1l-0.3,1.8h-1.1l-0.3,1.7h-2.5l0.3-1.7L15.7,18.7L15.7,18.7z M20.3,15.4   c-0.2,0.3-0.5,0.6-0.7,0.9l-0.5,0.6l0,0H20l0.1-0.5C20.2,16.1,20.3,15.7,20.3,15.4L20.3,15.4z"></path>
</g>
</svg>
