<?xml version="1.0" encoding="UTF-8"?>
<!-- Generator: Adobe Illustrator 25.2.1, SVG Export Plug-In . SVG Version: 6.00 Build 0)  -->
<svg xmlns="http://www.w3.org/2000/svg" xmlns:xlink="http://www.w3.org/1999/xlink" version="1.1" id="Layer_1" x="0px" y="0px" viewBox="0 0 32 32" style="enable-background:new 0 0 32 32;" xml:space="preserve">
<style type="text/css">
	.st0{fill:#8DBBFF;}
	.st1{fill:#587CFF;}
</style>
<path class="st0" d="M19.1,26.9h-7.7c-0.4,0-0.6,0.3-0.6,0.6v0.6H9.5c-1.8,0-3.2-1.4-3.2-3.2v-0.8c-0.4-0.1-0.9-0.2-1.3-0.3V25  c0,2.5,2,4.5,4.5,4.5h1.3v0.6c0,0.4,0.3,0.6,0.6,0.6h7.7c0.4,0,0.6-0.3,0.6-0.6v-2.6C19.8,27.2,19.5,26.9,19.1,26.9z"></path>
<path class="st1" d="M27.6,18.2l0.8-13.5c0-0.3-0.2-0.6-0.5-0.6c-0.1,0-0.3,0-0.4,0.1L22,8.8l-5.6-7.2c-0.2-0.2-0.6-0.3-0.8-0.1  c0,0,0,0-0.1,0.1L9.9,8.8L4.3,4.2C4.1,4.1,3.8,4.1,3.6,4.3C3.5,4.4,3.4,4.6,3.4,4.7l0.8,13.5H27.6z"></path>
<path class="st0" d="M4.3,19.3l0.1,1.8c0.1,1.1,1,2,2.2,2h18.6c1.1,0,2.1-0.9,2.2-2l0.1-1.8H4.3z"></path>
</svg>
