<?xml version="1.0" encoding="UTF-8"?>
<!-- Generator: Adobe Illustrator 25.2.1, SVG Export Plug-In . SVG Version: 6.00 Build 0)  -->
<svg xmlns="http://www.w3.org/2000/svg" xmlns:xlink="http://www.w3.org/1999/xlink" version="1.1" id="Layer_1" x="0px" y="0px" viewBox="0 0 32 32" style="enable-background:new 0 0 32 32;" xml:space="preserve">
<style type="text/css">
	.st0{fill:#8DBBFF;}
	.st1{fill:#587CFF;}
</style>
<g>
	<path class="st0" d="M19.2,26.9h-7.7c-0.4,0-0.6,0.3-0.6,0.6v0.6H9.6c-1.8,0-3.2-1.4-3.2-3.2v-0.8c-0.4-0.1-0.9-0.2-1.3-0.3V25   c0,2.5,2,4.5,4.5,4.5h1.3v0.6c0,0.4,0.3,0.6,0.6,0.6h7.7c0.4,0,0.6-0.3,0.6-0.6v-2.6C19.9,27.2,19.6,26.9,19.2,26.9z"></path>
	<path class="st1" d="M26.9,10.8c-0.1-5.3-4.3-9.5-9.6-9.5h-2.6c-5.3,0-9.6,4.3-9.6,9.5c-2.3,1-3.9,3.3-3.9,5.9   c0,3.5,2.9,6.4,6.4,6.4c0.5,0,0.9-0.1,1.4-0.2c0.3-0.1,0.5-0.3,0.5-0.6V11c0-0.3-0.2-0.6-0.5-0.6c-0.5-0.1-1-0.2-1.4-0.2   c-0.4,0-0.9,0-1.3,0.1c0.3-4.4,3.9-7.8,8.3-7.8h2.6c4.4,0,8,3.5,8.3,7.8c-0.4-0.1-0.8-0.1-1.3-0.1c-0.5,0-0.9,0.1-1.4,0.2   c-0.3,0.1-0.5,0.3-0.5,0.6v11.3c0,0.3,0.2,0.6,0.5,0.6c0.5,0.1,1,0.2,1.4,0.2c3.5,0,6.4-2.9,6.4-6.4C30.8,14,29.2,11.8,26.9,10.8z"></path>
</g>
</svg>
