<?xml version="1.0" encoding="UTF-8"?>
<!-- Generator: Adobe Illustrator 25.2.1, SVG Export Plug-In . SVG Version: 6.00 Build 0)  -->
<svg xmlns="http://www.w3.org/2000/svg" xmlns:xlink="http://www.w3.org/1999/xlink" version="1.1" id="Layer_1" x="0px" y="0px" viewBox="0 0 32 32" style="enable-background:new 0 0 32 32;" xml:space="preserve">
<style type="text/css">
	.st0{fill:#587CFF;}
	.st1{fill:#8DBBFF;}
</style>
<g>
	<path class="st0" d="M13.8,21.3l-4-4c-0.5-0.5-1.2-0.7-1.9-0.6c-0.3,0-0.7,0.2-0.9,0.5c-0.3,0.3-0.4,0.7-0.5,1.2   c0,0.5,0.2,0.9,0.5,1.2l3.1,3.1c0.2,0.2,0.3,0.6,0,0.9c-0.2,0.2-0.6,0.3-0.9,0c0,0,0,0,0,0l-3.1-3.1c-0.6-0.6-0.9-1.3-0.9-2.1   c0-0.9,0.4-1.8,1.1-2.3v-4.4c0-1-0.7-1.9-1.8-2c-1-0.1-1.9,0.7-1.9,1.8c0,0,0,0.1,0,0.1v8.4c0,0.6,0.2,1.1,0.5,1.5L7.7,27v2.5   C7.7,29.8,8,30,8.4,30h5.6c0.3,0,0.6-0.3,0.6-0.6V23C14.5,22.4,14.3,21.8,13.8,21.3z"></path>
	<path class="st0" d="M18.2,21.3l4-4c0.5-0.5,1.2-0.7,1.9-0.6c0.3,0,0.7,0.2,0.9,0.5c0.3,0.3,0.4,0.7,0.5,1.2c0,0.5-0.2,0.9-0.5,1.2   l-3.1,3.1c-0.2,0.2-0.3,0.6,0,0.9c0.2,0.2,0.6,0.3,0.9,0c0,0,0,0,0,0l3.1-3.1c0.6-0.6,0.9-1.3,0.9-2.1c0-0.9-0.4-1.8-1.1-2.3v-4.4   c0-1,0.7-1.9,1.8-2c1-0.1,1.9,0.7,1.9,1.8c0,0,0,0.1,0,0.1v8.4c0,0.6-0.2,1.1-0.5,1.5L24.3,27v2.5c0,0.3-0.3,0.6-0.6,0.6h-5.6   c-0.3,0-0.6-0.3-0.6-0.6V23C17.5,22.4,17.7,21.8,18.2,21.3z"></path>
	<g>
		<path class="st1" d="M13.7,10.5c-0.7-1.2-1-2.5-0.9-3.9c-0.1,0-0.2-0.1-0.4-0.1c-0.3,0-0.5-0.1-0.8-0.1C10,6.4,8.6,7.4,8.2,9    C8,9.9,8.1,10.8,8.6,11.6c0.5,0.8,1.2,1.4,2.1,1.6c0.3,0.1,0.5,0.1,0.8,0.1c0,0,0,0,0.1,0c-0.4,0.9-0.8,1.6-1.1,2.2l1.1,0.3    c0.5-0.6,1-1.3,1.5-2c0.5-0.7,0.9-1.3,1.1-1.9c0-0.1,0.1-0.1,0.1-0.2C14.2,11.2,13.9,10.9,13.7,10.5z"></path>
		<path class="st1" d="M15.2,10.6c0.7,0.7,1.5,1.2,2.4,1.4c0.4,0.1,0.8,0.1,1.2,0.1c0,0,0.1,0,0.1,0c-0.1,0.2-0.2,0.5-0.3,0.7    c-0.5,1-0.9,1.8-1.3,2.5l1.7,0.4c0.7-0.9,1.4-1.9,2.2-3c0.2-0.2,0.3-0.5,0.5-0.7c0.5-0.7,0.9-1.4,1.2-2c0.4-0.5,0.6-1.1,0.8-1.8    c0.7-2.7-1-5.5-3.7-6.2C19.6,2,19.2,2,18.8,2c-2.4,0-4.3,1.6-4.9,3.8c0,0.2-0.1,0.5-0.1,0.7c-0.1,1.1,0.1,2.2,0.7,3.1    C14.7,10,14.9,10.3,15.2,10.6z"></path>
	</g>
</g>
</svg>
