<svg id="Layer_1" data-name="Layer 1" xmlns="http://www.w3.org/2000/svg" viewBox="0 0 102.43 80"><defs><style>.cls-1{fill:#ffebcc;}.cls-2,.cls-4{fill:none;stroke:#dd8d00;stroke-miterlimit:10;stroke-width:2px;}.cls-2{stroke-linecap:round;}.cls-3{fill:#ffbf3e;}</style></defs><path class="cls-1" d="M50.55,77.18A37.17,37.17,0,1,1,87.71,40,37.17,37.17,0,0,1,50.55,77.18"/><path class="cls-2" d="M25.37,79H6.85A6.4,6.4,0,0,1,.47,72.57V14.62A6.41,6.41,0,0,1,6.85,8.23H41.71"/><path class="cls-2" d="M98.2,53.32V72.57A6.41,6.41,0,0,1,91.81,79H39.73"/><path class="cls-3" d="M29.37,46.81A10.36,10.36,0,1,0,19,36.45,10.36,10.36,0,0,0,29.37,46.81Zm7.25,2.59H35.27a14.14,14.14,0,0,1-11.8,0H22.12A10.88,10.88,0,0,0,11.24,60.27v3.37a3.89,3.89,0,0,0,3.89,3.89H43.61a3.89,3.89,0,0,0,3.89-3.89V60.27A10.88,10.88,0,0,0,36.62,49.4Z"/><path class="cls-4" d="M26.58,43.06A10.36,10.36,0,1,0,16.22,32.7,10.36,10.36,0,0,0,26.58,43.06Zm7.25,2.59H32.48a14,14,0,0,1-11.8,0H19.33A10.88,10.88,0,0,0,8.45,56.53v3.36a3.89,3.89,0,0,0,3.89,3.89H40.82a3.89,3.89,0,0,0,3.88-3.89V56.53A10.88,10.88,0,0,0,33.83,45.65Z"/><path class="cls-2" d="M91.41,4.39H95.1c3,0,5.53,2.14,5.53,4.76v32.9c0,2.62-2.49,4.76-5.53,4.76H54.37c-3,0-5.53-2.14-5.53-4.76V9.15c0-2.62,2.49-4.76,5.53-4.76H59"/><path class="cls-2" d="M62,19.44l-1.58-1.59a1.7,1.7,0,0,1,0-2.41L74.22,1.58a1.71,1.71,0,0,1,2.42,0L90.49,15.43a1.71,1.71,0,0,1,0,2.42l-1.58,1.58a1.72,1.72,0,0,1-2.45,0l-8.18-8.58V38.31A1.7,1.7,0,0,1,76.57,40H74.29a1.7,1.7,0,0,1-1.71-1.71V10.82L64.4,19.41A1.71,1.71,0,0,1,62,19.44Z"/><line class="cls-2" x1="52.29" y1="57.3" x2="70.04" y2="57.3"/><line class="cls-2" x1="52.29" y1="63.78" x2="86.59" y2="63.78"/></svg>