<svg id="Layer_1" data-name="Layer 1" xmlns="http://www.w3.org/2000/svg" viewBox="0 0 119.46 80"><defs><style>.cls-1{fill:#d6e0f2;}.cls-2{fill:#5eaeea;}.cls-3{fill:none;stroke:#2971b2;stroke-linecap:round;stroke-miterlimit:10;stroke-width:2px;}</style></defs><path class="cls-1" d="M60.18,76.68A37.17,37.17,0,1,1,97.34,39.52,37.16,37.16,0,0,1,60.18,76.68"/><path class="cls-2" d="M77.64,46,57.26,25.6a3.14,3.14,0,0,1,0-4.43l4.43-4.44a3.15,3.15,0,0,1,4.44,0L79.85,30.46l29.4-29.4a3.14,3.14,0,0,1,4.43,0l4.44,4.43a3.15,3.15,0,0,1,0,4.44L82.07,46a3.12,3.12,0,0,1-4.43,0Z"/><path class="cls-3" d="M99.84,21.58,76.29,45.14a2.81,2.81,0,0,1-4,0h0L54.12,26.93a2.8,2.8,0,0,1,0-4l4-4a2.81,2.81,0,0,1,4,0L74.31,31.27,100.59,5a2.81,2.81,0,0,1,4,0l4,4a2.81,2.81,0,0,1,0,4l-4.92,4.91"/><line class="cls-3" x1="29.71" y1="34.54" x2="53.31" y2="34.54"/><path class="cls-3" d="M76.07,78.3l-55.78.59h-18a.86.86,0,0,1-.82-1.25L8.57,65.5a11.11,11.11,0,0,0,1.19-5.81V41.13a6.67,6.67,0,0,1,6.72-6.59h5.59"/><path class="cls-3" d="M75.45,78.31l5.6-.1a6.61,6.61,0,0,0,6.64-6.59V56.71"/><path class="cls-3" d="M59.12,13.91v-2.4a2,2,0,0,1,2-1.95H88.86"/><path class="cls-3" d="M99.84,32.05V48.33a2,2,0,0,1-2,2H61.07a2,2,0,0,1-2-2v-9.7"/><rect class="cls-3" x="19.03" y="42.95" width="10.68" height="10.68" rx="0.86"/><line class="cls-3" x1="34.62" y1="53.63" x2="54.1" y2="53.63"/><rect class="cls-3" x="19.03" y="60.77" width="10.68" height="10.68" rx="0.86"/><line class="cls-3" x1="34.62" y1="71.45" x2="70.91" y2="71.45"/></svg>