<svg id="Layer_1" data-name="Layer 1" xmlns="http://www.w3.org/2000/svg" viewBox="0 0 118.76 80"><defs><style>.cls-1{fill:#d9eff4;}.cls-2{fill:#52c3ce;}.cls-3{fill:none;stroke:#208899;stroke-linecap:round;stroke-miterlimit:10;stroke-width:2px;}</style></defs><path class="cls-1" d="M59.47,78.8A37.17,37.17,0,1,1,96.63,41.64,37.17,37.17,0,0,1,59.47,78.8"/><path class="cls-2" d="M81.11,18.89a14.15,14.15,0,0,0-23.38,6.87,1,1,0,0,1-1,.77H51.93a1,1,0,0,1-1-1.19A20.88,20.88,0,0,1,85.88,14.13l3-3a2,2,0,0,1,3.45,1.43V23.84a2,2,0,0,1-2,2H79a2,2,0,0,1-1.42-3.45ZM52.59,32.59H63.88A2,2,0,0,1,65.31,36l-3.52,3.52a14.15,14.15,0,0,0,23.38-6.87,1,1,0,0,1,1-.77H91a1,1,0,0,1,1,1.19A20.88,20.88,0,0,1,57,44.32l-3,3a2,2,0,0,1-3.45-1.43V34.61A2,2,0,0,1,52.59,32.59Z"/><path class="cls-3" d="M83.61,7.51a21.1,21.1,0,0,1,5.8,3.92l3-3a2,2,0,0,1,3.45,1.43V21.14a2,2,0,0,1-2,2H82.56a2,2,0,0,1-1.43-3.45l3.52-3.51A14,14,0,0,0,75,12.39,14.14,14.14,0,0,0,61.27,23.07a1,1,0,0,1-1,.77H55.46a1,1,0,0,1-1-1.2A20.89,20.89,0,0,1,83.61,7.51M64.42,29.9h3a2,2,0,0,1,1.43,3.45l-3.52,3.51A14,14,0,0,0,75,40.67,14.16,14.16,0,0,0,88.71,30a1,1,0,0,1,1-.77h4.82a1,1,0,0,1,1,1.2A20.88,20.88,0,0,1,60.57,41.63l-3,3a2,2,0,0,1-3.45-1.42V31.92a2,2,0,0,1,2-2h4.79m3.5,0"/><path class="cls-3" d="M95.87,53.4l4.76.05h15.74a.74.74,0,0,0,.71-1.09l-6.22-10.59a9.68,9.68,0,0,1-1-5.07V6.84A5.83,5.83,0,0,0,104,1.08H55.39"/><line class="cls-3" x1="55.39" y1="52.95" x2="90.22" y2="53.29"/><path class="cls-3" d="M55.39,53l-7.79-.08a5.77,5.77,0,0,1-5.79-5.76V6.84a5.83,5.83,0,0,1,5.86-5.76h7.72"/><path class="cls-3" d="M1.75,61.73V27.11a4,4,0,0,1,4-4H35.34"/><path class="cls-3" d="M59.73,58.78v16a4,4,0,0,1-4,4H5.79a4,4,0,0,1-4-4v-7"/><line class="cls-3" x1="1.75" y1="35.33" x2="35.2" y2="35.33"/><rect class="cls-3" x="8.34" y="42.13" width="11.32" height="11.32" rx="0.6"/><rect class="cls-3" x="25.26" y="42.13" width="11.32" height="11.32" rx="0.6"/><rect class="cls-3" x="8.34" y="59.47" width="11.32" height="11.32" rx="0.6"/><rect class="cls-3" x="25.26" y="59.47" width="11.32" height="11.32" rx="0.6"/><rect class="cls-3" x="41.81" y="59.47" width="11.32" height="11.32" rx="0.6"/><path class="cls-3" d="M10.19,23.08V18.21a3.47,3.47,0,0,1,3.47-3.47h0a3.46,3.46,0,0,1,3.46,3.47v4.87"/></svg>