<svg id="Layer_1" data-name="Layer 1" xmlns="http://www.w3.org/2000/svg" viewBox="0 0 110.16 75.47"><defs><style>.cls-1{fill:#f0f4d0;}.cls-2{fill:none;stroke:#6d8700;stroke-linecap:round;stroke-miterlimit:10;stroke-width:2px;}.cls-3{fill:#adbf43;}</style></defs><path class="cls-1" d="M55.46,75A37.17,37.17,0,1,1,92.62,37.85,37.17,37.17,0,0,1,55.46,75"/><rect class="cls-2" x="16.94" y="13.79" width="10.1" height="10.1" rx="0.54"/><rect class="cls-2" x="33.72" y="13.79" width="10.1" height="10.1" rx="0.54"/><rect class="cls-2" x="16.94" y="29.26" width="10.1" height="10.1" rx="0.54"/><rect class="cls-2" x="33.72" y="29.26" width="10.1" height="10.1" rx="0.54"/><path class="cls-2" d="M50.34,38.82v-9a.54.54,0,0,1,.54-.53h7.33"/><rect class="cls-2" x="50.34" y="13.79" width="10.1" height="10.1" rx="0.54"/><path class="cls-3" d="M85.8,26.56a24,24,0,1,0,24,24A24,24,0,0,0,85.8,26.56Zm9,30.32h0l-1.94,2.43a1.56,1.56,0,0,1-2.18.24h0l-6.49-4.82a3.87,3.87,0,0,1-1.46-3V36.63a1.56,1.56,0,0,1,1.55-1.55h3.1a1.56,1.56,0,0,1,1.56,1.55v14l5.61,4.11a1.56,1.56,0,0,1,.25,2.18Z"/><path class="cls-2" d="M61.85,63.34a24.48,24.48,0,1,0-2.92-5.12m31.93-3.08h0l-2,2.48a1.58,1.58,0,0,1-2.23.25h0L80,52.93a4,4,0,0,1-1.49-3.11V34.36a1.59,1.59,0,0,1,1.59-1.59h3.18a1.6,1.6,0,0,1,1.59,1.59V48.68l5.76,4.22a1.58,1.58,0,0,1,.25,2.23Z"/><line class="cls-3" x1="81.81" y1="61.35" x2="71.43" y2="69.61"/><line class="cls-2" x1="27.04" y1="1.09" x2="61.77" y2="1.09"/><path class="cls-2" d="M50.05,46.35l-31.42.07H2a.83.83,0,0,1-.79-1.23l6-8.86a7.64,7.64,0,0,0,1.16-4.69V7.54A6.53,6.53,0,0,1,14.9,1.09h5"/><path class="cls-2" d="M70.92,17.13V7.54a6.53,6.53,0,0,0-6.57-6.45H55.7"/><line class="cls-2" x1="8.33" y1="9.11" x2="70.51" y2="9.11"/></svg>