<svg id="Layer_1" data-name="Layer 1" xmlns="http://www.w3.org/2000/svg" viewBox="0 0 74.42 80"><defs><style>.cls-1{fill:#d0f4d7;}.cls-2{fill:#5dc97f;}.cls-3{fill:none;stroke:#147529;stroke-linecap:round;stroke-miterlimit:10;stroke-width:2px;}</style></defs><path class="cls-1" d="M37.16,77.16A37.16,37.16,0,1,1,74.33,40,37.16,37.16,0,0,1,37.16,77.16"/><path class="cls-2" d="M61.2,46.61l-34.61.29H15.27a.53.53,0,0,1-.51-.78l4.48-7.61A7,7,0,0,0,20,34.86V23.21a4.18,4.18,0,0,1,4.21-4.13H59.12"/><path class="cls-2" d="M59.12,46.54l5.6-.06a4.15,4.15,0,0,0,4.16-4.14V23.21a4.18,4.18,0,0,0-4.21-4.13H59.12"/><line class="cls-3" x1="1.23" y1="32.99" x2="1.23" y2="21.01"/><path class="cls-3" d="M42.69,56.7v17a5.23,5.23,0,0,1-5.21,5.21h-31a5.23,5.23,0,0,1-5.21-5.21V40"/><path class="cls-3" d="M1.23,21V6.29A5.23,5.23,0,0,1,6.44,1.08h31a5.23,5.23,0,0,1,5.21,5.21v5.18"/><path class="cls-3" d="M38.4,13.1V9.81a3.29,3.29,0,0,0-3.2-3.35H33.05a.94.94,0,0,0-.92,1v.15a2.31,2.31,0,0,1-2.25,2.36H14a2.31,2.31,0,0,1-2.25-2.36V7.42a.94.94,0,0,0-.91-1H8.72a3.29,3.29,0,0,0-3.2,3.35V21"/><path class="cls-3" d="M5.52,21V70.66A3.29,3.29,0,0,0,8.72,74H35.2a3.29,3.29,0,0,0,3.2-3.36V55.87"/><line class="cls-3" x1="17.26" y1="5.73" x2="22.35" y2="5.73"/><line class="cls-3" x1="26.16" y1="5.73" x2="26.16" y2="5.73"/><path class="cls-3" d="M57.56,51.28l-26.76.3H19.48A.53.53,0,0,1,19,50.8l4.48-7.62a7,7,0,0,0,.75-3.64V27.89a4.19,4.19,0,0,1,4.21-4.14h3.81"/><path class="cls-3" d="M63.33,51.22l5.6-.06A4.14,4.14,0,0,0,73.09,47V27.89a4.19,4.19,0,0,0-4.21-4.14H63.33"/><path class="cls-3" d="M60,22.73a9,9,0,0,1-9,9.05,9.29,9.29,0,0,1-1.68-.16L48.07,33a1.23,1.23,0,0,1-.92.41H45.24v2.06A1.23,1.23,0,0,1,44,36.71H42v2.06A1.23,1.23,0,0,1,40.72,40H35a1.23,1.23,0,0,1-1.23-1.23v-4a1.25,1.25,0,0,1,.36-.88l8.31-8.31A9.18,9.18,0,0,1,42,22.73a9,9,0,0,1,18.09,0Zm-7.39-2.46a.81.81,0,1,0,.81-.81A.8.8,0,0,0,52.65,20.27Z"/></svg>