<?xml version="1.0" encoding="UTF-8"?>
<!-- Generator: Adobe Illustrator 25.2.1, SVG Export Plug-In . SVG Version: 6.00 Build 0)  -->
<svg xmlns="http://www.w3.org/2000/svg" xmlns:xlink="http://www.w3.org/1999/xlink" version="1.1" id="Layer_1" x="0px" y="0px" viewBox="0 0 600 600" style="enable-background:new 0 0 600 600;" xml:space="preserve">
<style type="text/css">
	.st0{fill:#5BC0BE;}
	.st1{fill:#A7CAFF;}
	.st2{fill:#FFFFFF;stroke:#B6C2E5;stroke-width:0.5;stroke-miterlimit:10;}
	.st3{enable-background:new    ;}
	.st4{fill:#444444;}
</style>
<g>
	<g>
		<circle class="st0" cx="456.9" cy="355.5" r="7"></circle>
		<circle class="st0" cx="486.3" cy="355.5" r="7"></circle>
		<circle class="st0" cx="515.5" cy="355.5" r="7"></circle>
		<circle class="st0" cx="544.8" cy="355.5" r="7"></circle>
		<circle class="st0" cx="574" cy="355.5" r="7"></circle>
	</g>
	<g>
		<circle class="st0" cx="456.9" cy="384.5" r="7"></circle>
		<circle class="st0" cx="486.3" cy="384.5" r="7"></circle>
		<circle class="st0" cx="515.5" cy="384.5" r="7"></circle>
		<circle class="st0" cx="544.8" cy="384.5" r="7"></circle>
		<circle class="st0" cx="574" cy="384.5" r="7"></circle>
	</g>
	<g>
		<circle class="st0" cx="456.9" cy="413.4" r="7"></circle>
		<circle class="st0" cx="486.3" cy="413.4" r="7"></circle>
		<circle class="st0" cx="515.5" cy="413.4" r="7"></circle>
		<circle class="st0" cx="544.8" cy="413.4" r="7"></circle>
		<circle class="st0" cx="574" cy="413.4" r="7"></circle>
	</g>
	<g>
		<circle class="st0" cx="456.9" cy="442.4" r="7"></circle>
		<circle class="st0" cx="486.3" cy="442.4" r="7"></circle>
		<circle class="st0" cx="515.5" cy="442.4" r="7"></circle>
		<circle class="st0" cx="544.8" cy="442.4" r="7"></circle>
		<circle class="st0" cx="574" cy="442.4" r="7"></circle>
	</g>
	<g>
		<circle class="st0" cx="456.9" cy="471.2" r="7"></circle>
		<circle class="st0" cx="486.3" cy="471.2" r="7"></circle>
		<circle class="st0" cx="515.5" cy="471.2" r="7"></circle>
		<circle class="st0" cx="544.8" cy="471.2" r="7"></circle>
		<circle class="st0" cx="574" cy="471.2" r="7"></circle>
	</g>
	<g>
		<circle class="st0" cx="456.9" cy="500.2" r="7"></circle>
		<circle class="st0" cx="486.3" cy="500.2" r="7"></circle>
		<circle class="st0" cx="515.5" cy="500.2" r="7"></circle>
		<circle class="st0" cx="544.8" cy="500.2" r="7"></circle>
		<circle class="st0" cx="574" cy="500.2" r="7"></circle>
	</g>
	<g>
		<circle class="st0" cx="456.9" cy="529" r="7"></circle>
		<circle class="st0" cx="486.3" cy="529" r="7"></circle>
		<circle class="st0" cx="515.5" cy="529" r="7"></circle>
		<circle class="st0" cx="544.8" cy="529" r="7"></circle>
		<circle class="st0" cx="574" cy="529" r="7"></circle>
	</g>
	<g>
		<circle class="st0" cx="456.9" cy="558" r="7"></circle>
		<circle class="st0" cx="486.3" cy="558" r="7"></circle>
		<circle class="st0" cx="515.5" cy="558" r="7"></circle>
		<circle class="st0" cx="544.8" cy="558" r="7"></circle>
		<circle class="st0" cx="574" cy="558" r="7"></circle>
	</g>
</g>
<path class="st1" d="M257.5,269.5H22c-6.6,0-12-5.4-12-12V22c0-6.6,5.4-12,12-12h235.5c6.6,0,12,5.4,12,12v235.5  C269.5,264.1,264.1,269.5,257.5,269.5z"></path>
<path class="st2" d="M486.2,489.1H107.6c-28.9,0-52.7-23.6-52.7-52.7V114.6c0-28.9,23.6-52.7,52.7-52.7h378.6  c28.9,0,52.7,23.6,52.7,52.7v321.8C539.1,465.4,515.6,489.1,486.2,489.1z"></path>
<g>
	<g class="st3">
		<path class="st4" d="M116.6,125.8H113l-3.5-12.2c-0.1-0.5-0.3-1.3-0.6-2.3c-0.2-1-0.4-1.7-0.4-2.1c-0.1,0.6-0.2,1.4-0.5,2.3    c-0.2,1-0.4,1.7-0.5,2.1l-3.4,12.1h-3.6l-2.6-10.2l-2.7-10.2h3.4l2.9,11.9c0.5,1.9,0.8,3.6,1,5.1c0.1-0.8,0.3-1.7,0.5-2.7    c0.2-1,0.4-1.8,0.6-2.4l3.3-12h3.3l3.4,12c0.3,1.1,0.7,2.8,1,5c0.1-1.3,0.5-3,1-5.1l2.9-11.9h3.4L116.6,125.8z"></path>
		<path class="st4" d="M131.3,126.1c-2.4,0-4.3-0.7-5.6-2.1s-2-3.3-2-5.8c0-2.5,0.6-4.5,1.9-6c1.3-1.4,3-2.2,5.2-2.2    c2,0,3.7,0.6,4.8,1.9c1.2,1.2,1.8,2.9,1.8,5.1v1.8H127c0,1.5,0.5,2.7,1.2,3.5c0.8,0.8,1.8,1.2,3.2,1.2c0.9,0,1.8-0.1,2.6-0.3    c0.8-0.2,1.6-0.5,2.5-0.9v2.7c-0.8,0.4-1.6,0.7-2.4,0.8C133.2,126,132.3,126.1,131.3,126.1z M130.7,112.5c-1,0-1.9,0.3-2.5,1    c-0.6,0.7-1,1.6-1.1,2.9h7c0-1.3-0.3-2.2-0.9-2.9C132.5,112.9,131.7,112.5,130.7,112.5z"></path>
		<path class="st4" d="M161.1,125.8l-2-7.2c-0.2-0.8-0.7-2.5-1.3-5.3h-0.1c-0.5,2.5-1,4.3-1.3,5.4l-2.1,7.2h-3.6l-4.3-15.5h3.4    l2,7.6c0.4,1.9,0.8,3.5,1,4.8h0.1c0.1-0.7,0.2-1.5,0.4-2.3c0.2-0.9,0.4-1.5,0.5-2l2.4-8.1h3.6l2.3,8.1c0.1,0.5,0.3,1.2,0.5,2.1    c0.2,0.9,0.3,1.7,0.4,2.2h0.1c0.1-1.1,0.5-2.8,1-4.8l2-7.6h3.3l-4.4,15.5H161.1z"></path>
		<path class="st4" d="M181.5,125.8l-0.7-2.2h-0.1c-0.7,0.9-1.5,1.6-2.3,1.9c-0.8,0.3-1.7,0.5-2.9,0.5c-1.5,0-2.7-0.4-3.6-1.2    c-0.9-0.8-1.3-2-1.3-3.5c0-1.6,0.6-2.8,1.8-3.6c1.2-0.8,3-1.3,5.4-1.3l2.7-0.1v-0.8c0-1-0.2-1.7-0.7-2.2c-0.5-0.5-1.2-0.7-2.1-0.7    c-0.8,0-1.6,0.1-2.3,0.3c-0.7,0.2-1.4,0.5-2.1,0.8l-1.1-2.4c0.8-0.4,1.8-0.8,2.8-1c1-0.2,1.9-0.3,2.8-0.3c2,0,3.5,0.4,4.5,1.3    c1,0.9,1.5,2.2,1.5,4v10.4H181.5z M176.6,123.6c1.2,0,2.2-0.3,2.9-1c0.7-0.7,1.1-1.6,1.1-2.8v-1.3l-2,0.1    c-1.5,0.1-2.7,0.3-3.4,0.8c-0.7,0.5-1.1,1.2-1.1,2.1c0,0.7,0.2,1.2,0.6,1.6C175.2,123.4,175.8,123.6,176.6,123.6z"></path>
		<path class="st4" d="M202.1,125.8h-3.3v-9.5c0-1.2-0.2-2.1-0.7-2.7c-0.5-0.6-1.2-0.9-2.3-0.9c-1.4,0-2.4,0.4-3.1,1.2    c-0.6,0.8-1,2.2-1,4.1v7.7h-3.3v-15.5h2.6l0.5,2h0.2c0.5-0.7,1.1-1.3,2-1.7c0.9-0.4,1.8-0.6,2.9-0.6c3.7,0,5.6,1.9,5.6,5.7V125.8z    "></path>
		<path class="st4" d="M212.4,123.4c0.8,0,1.6-0.1,2.4-0.4v2.5c-0.4,0.2-0.8,0.3-1.4,0.4s-1.2,0.2-1.8,0.2c-3.1,0-4.7-1.6-4.7-4.9    v-8.3h-2.1v-1.5l2.3-1.2l1.1-3.3h2v3.4h4.4v2.5h-4.4v8.3c0,0.8,0.2,1.4,0.6,1.8S211.8,123.4,212.4,123.4z"></path>
		<path class="st4" d="M231.2,123.4c0.8,0,1.6-0.1,2.4-0.4v2.5c-0.4,0.2-0.8,0.3-1.4,0.4s-1.2,0.2-1.8,0.2c-3.1,0-4.7-1.6-4.7-4.9    v-8.3h-2.1v-1.5l2.3-1.2l1.1-3.3h2v3.4h4.4v2.5H229v8.3c0,0.8,0.2,1.4,0.6,1.8S230.5,123.4,231.2,123.4z"></path>
		<path class="st4" d="M250.4,118c0,2.5-0.6,4.5-1.9,5.9c-1.3,1.4-3.1,2.1-5.4,2.1c-1.4,0-2.7-0.3-3.8-1c-1.1-0.7-2-1.6-2.6-2.8    c-0.6-1.2-0.9-2.6-0.9-4.3c0-2.5,0.6-4.5,1.9-5.9c1.3-1.4,3.1-2.1,5.4-2.1c2.2,0,4,0.7,5.3,2.2S250.4,115.6,250.4,118z M239.1,118    c0,3.6,1.3,5.4,4,5.4c2.6,0,3.9-1.8,3.9-5.4c0-3.5-1.3-5.3-3.9-5.3c-1.4,0-2.4,0.5-3,1.4S239.1,116.3,239.1,118z"></path>
		<path class="st4" d="M272,121.4c0,1.5-0.6,2.7-1.7,3.5c-1.1,0.8-2.7,1.2-4.7,1.2c-2.1,0-3.7-0.3-5-0.9v-2.8    c1.8,0.8,3.5,1.3,5.1,1.3c2,0,3-0.6,3-1.8c0-0.4-0.1-0.7-0.3-1c-0.2-0.3-0.6-0.5-1.1-0.8c-0.5-0.3-1.2-0.6-2.1-1    c-1.8-0.7-3-1.4-3.6-2.1s-0.9-1.6-0.9-2.7c0-1.3,0.5-2.4,1.6-3.1c1.1-0.7,2.5-1.1,4.4-1.1c1.8,0,3.5,0.4,5.2,1.1l-1.1,2.5    c-1.7-0.7-3.1-1-4.2-1c-1.7,0-2.6,0.5-2.6,1.5c0,0.5,0.2,0.9,0.7,1.2s1.4,0.8,3,1.4c1.3,0.5,2.2,0.9,2.8,1.4    c0.6,0.4,1,0.9,1.3,1.4C271.9,120,272,120.6,272,121.4z"></path>
		<path class="st4" d="M285.2,125.8l-0.7-2.2h-0.1c-0.7,0.9-1.5,1.6-2.3,1.9c-0.8,0.3-1.7,0.5-2.9,0.5c-1.5,0-2.7-0.4-3.6-1.2    c-0.9-0.8-1.3-2-1.3-3.5c0-1.6,0.6-2.8,1.8-3.6c1.2-0.8,3-1.3,5.4-1.3l2.7-0.1v-0.8c0-1-0.2-1.7-0.7-2.2c-0.5-0.5-1.2-0.7-2.1-0.7    c-0.8,0-1.6,0.1-2.3,0.3c-0.7,0.2-1.4,0.5-2.1,0.8l-1.1-2.4c0.8-0.4,1.8-0.8,2.8-1c1-0.2,1.9-0.3,2.8-0.3c2,0,3.5,0.4,4.5,1.3    c1,0.9,1.5,2.2,1.5,4v10.4H285.2z M280.3,123.6c1.2,0,2.2-0.3,2.9-1c0.7-0.7,1.1-1.6,1.1-2.8v-1.3l-2,0.1    c-1.5,0.1-2.7,0.3-3.4,0.8c-0.7,0.5-1.1,1.2-1.1,2.1c0,0.7,0.2,1.2,0.6,1.6C278.9,123.4,279.5,123.6,280.3,123.6z"></path>
		<path class="st4" d="M289.8,110.3h3.6l3.1,8.8c0.5,1.3,0.8,2.4,1,3.5h0.1c0.1-0.5,0.2-1.1,0.5-1.9c0.2-0.7,1.4-4.2,3.6-10.4h3.6    l-6.6,17.5c-1.2,3.2-3.2,4.8-6,4.8c-0.7,0-1.4-0.1-2.1-0.2v-2.6c0.5,0.1,1.1,0.2,1.7,0.2c1.6,0,2.7-0.9,3.3-2.8l0.6-1.5    L289.8,110.3z"></path>
		<path class="st4" d="M320.8,123.4c0.8,0,1.6-0.1,2.4-0.4v2.5c-0.4,0.2-0.8,0.3-1.4,0.4c-0.6,0.1-1.2,0.2-1.8,0.2    c-3.1,0-4.7-1.6-4.7-4.9v-8.3h-2.1v-1.5l2.3-1.2l1.1-3.3h2v3.4h4.4v2.5h-4.4v8.3c0,0.8,0.2,1.4,0.6,1.8S320.1,123.4,320.8,123.4z"></path>
		<path class="st4" d="M339.9,125.8h-3.3v-9.5c0-1.2-0.2-2.1-0.7-2.7c-0.5-0.6-1.2-0.9-2.3-0.9c-1.4,0-2.4,0.4-3,1.2    c-0.6,0.8-1,2.2-1,4.1v7.7h-3.3V104h3.3v5.5c0,0.9-0.1,1.8-0.2,2.8h0.2c0.4-0.7,1.1-1.3,1.9-1.7c0.8-0.4,1.7-0.6,2.8-0.6    c3.8,0,5.6,1.9,5.6,5.7V125.8z"></path>
		<path class="st4" d="M354.1,125.8l-0.7-2.2h-0.1c-0.7,0.9-1.5,1.6-2.3,1.9c-0.8,0.3-1.7,0.5-2.9,0.5c-1.5,0-2.7-0.4-3.6-1.2    c-0.9-0.8-1.3-2-1.3-3.5c0-1.6,0.6-2.8,1.8-3.6s3-1.3,5.4-1.3l2.7-0.1v-0.8c0-1-0.2-1.7-0.7-2.2c-0.5-0.5-1.2-0.7-2.1-0.7    c-0.8,0-1.6,0.1-2.3,0.3s-1.4,0.5-2.1,0.8l-1.1-2.4c0.8-0.4,1.8-0.8,2.8-1c1-0.2,1.9-0.3,2.8-0.3c2,0,3.5,0.4,4.5,1.3    s1.5,2.2,1.5,4v10.4H354.1z M349.2,123.6c1.2,0,2.2-0.3,2.9-1c0.7-0.7,1.1-1.6,1.1-2.8v-1.3l-2,0.1c-1.5,0.1-2.7,0.3-3.4,0.8    c-0.7,0.5-1.1,1.2-1.1,2.1c0,0.7,0.2,1.2,0.6,1.6C347.8,123.4,348.4,123.6,349.2,123.6z"></path>
		<path class="st4" d="M374.7,125.8h-3.3v-9.5c0-1.2-0.2-2.1-0.7-2.7c-0.5-0.6-1.2-0.9-2.3-0.9c-1.4,0-2.4,0.4-3.1,1.2    c-0.6,0.8-1,2.2-1,4.1v7.7h-3.3v-15.5h2.6l0.5,2h0.2c0.5-0.7,1.1-1.3,2-1.7c0.9-0.4,1.8-0.6,2.9-0.6c3.7,0,5.6,1.9,5.6,5.7V125.8z    "></path>
		<path class="st4" d="M382.4,117.6l1.9-2.3l4.7-5h3.8l-6.2,6.6l6.6,8.8h-3.9l-5-6.8l-1.8,1.5v5.3h-3.3V104h3.3v10.6L382.4,117.6    L382.4,117.6z"></path>
		<path class="st4" d="M400.7,110.3h3.6l3.1,8.8c0.5,1.3,0.8,2.4,1,3.5h0.1c0.1-0.5,0.2-1.1,0.5-1.9c0.2-0.7,1.4-4.2,3.6-10.4h3.6    l-6.6,17.5c-1.2,3.2-3.2,4.8-6,4.8c-0.7,0-1.4-0.1-2.1-0.2v-2.6c0.5,0.1,1.1,0.2,1.7,0.2c1.6,0,2.7-0.9,3.3-2.8l0.6-1.5    L400.7,110.3z"></path>
		<path class="st4" d="M432.2,118c0,2.5-0.6,4.5-1.9,5.9s-3.1,2.1-5.4,2.1c-1.4,0-2.7-0.3-3.8-1c-1.1-0.7-2-1.6-2.6-2.8    c-0.6-1.2-0.9-2.6-0.9-4.3c0-2.5,0.6-4.5,1.9-5.9c1.3-1.4,3.1-2.1,5.4-2.1c2.2,0,4,0.7,5.3,2.2S432.2,115.6,432.2,118z M420.9,118    c0,3.6,1.3,5.4,4,5.4c2.6,0,3.9-1.8,3.9-5.4c0-3.5-1.3-5.3-3.9-5.3c-1.4,0-2.4,0.5-3,1.4S420.9,116.3,420.9,118z"></path>
		<path class="st4" d="M446.9,125.8l-0.5-2h-0.2c-0.5,0.7-1.1,1.3-2,1.7c-0.8,0.4-1.8,0.6-2.9,0.6c-1.9,0-3.3-0.5-4.2-1.4    c-0.9-0.9-1.4-2.3-1.4-4.2v-10.1h3.3v9.5c0,1.2,0.2,2.1,0.7,2.7c0.5,0.6,1.2,0.9,2.3,0.9c1.4,0,2.4-0.4,3-1.2s1-2.2,1-4.1v-7.7    h3.3v15.5H446.9z"></path>
		<path class="st4" d="M469.4,112.8h-3.8v13h-3.3v-13h-2.5v-1.5l2.5-1v-1c0-1.8,0.4-3.2,1.3-4.1c0.9-0.9,2.2-1.3,3.9-1.3    c1.2,0,2.3,0.2,3.4,0.6l-0.9,2.5c-0.8-0.3-1.6-0.4-2.3-0.4c-0.7,0-1.3,0.2-1.6,0.7c-0.3,0.5-0.5,1.2-0.5,2.1v1h3.8V112.8z"></path>
		<path class="st4" d="M485.7,118c0,2.5-0.6,4.5-1.9,5.9s-3.1,2.1-5.4,2.1c-1.4,0-2.7-0.3-3.8-1c-1.1-0.7-2-1.6-2.6-2.8    c-0.6-1.2-0.9-2.6-0.9-4.3c0-2.5,0.6-4.5,1.9-5.9c1.3-1.4,3.1-2.1,5.4-2.1c2.2,0,4,0.7,5.3,2.2S485.7,115.6,485.7,118z M474.5,118    c0,3.6,1.3,5.4,4,5.4c2.6,0,3.9-1.8,3.9-5.4c0-3.5-1.3-5.3-3.9-5.3c-1.4,0-2.4,0.5-3,1.4S474.5,116.3,474.5,118z"></path>
		<path class="st4" d="M497.3,110c0.7,0,1.2,0,1.6,0.1l-0.3,3.1c-0.5-0.1-1-0.2-1.5-0.2c-1.3,0-2.4,0.4-3.2,1.3s-1.2,2-1.2,3.3v8.1    h-3.3v-15.5h2.6l0.4,2.7h0.2c0.5-0.9,1.2-1.7,2-2.2C495.5,110.3,496.4,110,497.3,110z"></path>
	</g>
	<g class="st3">
		<path class="st4" d="M107.8,173.4c0,1.5-0.6,2.7-1.7,3.5c-1.1,0.8-2.7,1.2-4.7,1.2c-2.1,0-3.7-0.3-5-0.9v-2.8    c1.8,0.8,3.5,1.3,5.1,1.3c2,0,3-0.6,3-1.8c0-0.4-0.1-0.7-0.3-1c-0.2-0.3-0.6-0.5-1.1-0.8c-0.5-0.3-1.2-0.6-2.1-1    c-1.8-0.7-3-1.4-3.6-2.1s-0.9-1.6-0.9-2.7c0-1.3,0.5-2.4,1.6-3.1c1.1-0.7,2.5-1.1,4.4-1.1c1.8,0,3.5,0.4,5.2,1.1l-1.1,2.5    c-1.7-0.7-3.1-1-4.2-1c-1.7,0-2.6,0.5-2.6,1.5c0,0.5,0.2,0.9,0.7,1.2s1.4,0.8,3,1.4c1.3,0.5,2.2,0.9,2.8,1.4    c0.6,0.4,1,0.9,1.3,1.4C107.6,172,107.8,172.6,107.8,173.4z"></path>
		<path class="st4" d="M117.1,175.4c0.8,0,1.6-0.1,2.4-0.4v2.5c-0.4,0.2-0.8,0.3-1.4,0.4s-1.2,0.2-1.8,0.2c-3.1,0-4.7-1.6-4.7-4.9    v-8.3h-2.1v-1.5l2.3-1.2l1.1-3.3h2v3.4h4.4v2.5H115v8.3c0,0.8,0.2,1.4,0.6,1.8S116.5,175.4,117.1,175.4z"></path>
		<path class="st4" d="M122.4,158.2c0-0.6,0.2-1,0.5-1.4s0.8-0.5,1.4-0.5c0.6,0,1,0.2,1.4,0.5c0.3,0.3,0.5,0.8,0.5,1.4    c0,0.6-0.2,1-0.5,1.3c-0.3,0.3-0.8,0.5-1.4,0.5c-0.6,0-1.1-0.2-1.4-0.5C122.6,159.2,122.4,158.8,122.4,158.2z M125.9,177.8h-3.3    v-15.5h3.3V177.8z"></path>
		<path class="st4" d="M136.8,178.1c-2.3,0-4.1-0.7-5.3-2.1c-1.2-1.4-1.8-3.3-1.8-5.9c0-2.6,0.6-4.6,1.9-6s3.1-2.1,5.5-2.1    c1.6,0,3.1,0.3,4.4,0.9l-1,2.6c-1.4-0.5-2.5-0.8-3.4-0.8c-2.7,0-4,1.8-4,5.3c0,1.7,0.3,3,1,3.9c0.7,0.9,1.6,1.3,2.9,1.3    c1.5,0,2.9-0.4,4.2-1.1v2.9c-0.6,0.3-1.2,0.6-1.9,0.7C138.6,178,137.8,178.1,136.8,178.1z"></path>
		<path class="st4" d="M148,169.6l1.9-2.3l4.7-5h3.8l-6.2,6.6l6.6,8.8h-3.9l-5-6.8l-1.8,1.5v5.3h-3.3V156h3.3v10.6L148,169.6    L148,169.6z"></path>
		<path class="st4" d="M161,158.2c0-0.6,0.2-1,0.5-1.4s0.8-0.5,1.4-0.5c0.6,0,1,0.2,1.4,0.5c0.3,0.3,0.5,0.8,0.5,1.4    c0,0.6-0.2,1-0.5,1.3c-0.3,0.3-0.8,0.5-1.4,0.5c-0.6,0-1.1-0.2-1.4-0.5C161.1,159.2,161,158.8,161,158.2z M164.5,177.8h-3.3v-15.5    h3.3V177.8z"></path>
		<path class="st4" d="M182.8,177.8h-3.3v-9.5c0-1.2-0.2-2.1-0.7-2.7c-0.5-0.6-1.2-0.9-2.3-0.9c-1.4,0-2.4,0.4-3.1,1.2    c-0.6,0.8-1,2.2-1,4.1v7.7h-3.3v-15.5h2.6l0.5,2h0.2c0.5-0.7,1.1-1.3,2-1.7c0.9-0.4,1.8-0.6,2.9-0.6c3.7,0,5.6,1.9,5.6,5.7V177.8z    "></path>
		<path class="st4" d="M200.4,162.3v1.8l-2.6,0.5c0.2,0.3,0.4,0.7,0.6,1.2s0.2,1,0.2,1.5c0,1.6-0.6,2.8-1.7,3.8    c-1.1,0.9-2.6,1.4-4.5,1.4c-0.5,0-0.9,0-1.3-0.1c-0.7,0.4-1.1,1-1.1,1.5c0,0.4,0.2,0.6,0.5,0.8c0.3,0.2,0.9,0.3,1.8,0.3h2.7    c1.7,0,3,0.4,3.9,1.1s1.3,1.8,1.3,3.1c0,1.8-0.7,3.1-2.2,4.1c-1.4,1-3.5,1.4-6.3,1.4c-2.1,0-3.7-0.4-4.8-1.1    c-1.1-0.7-1.7-1.8-1.7-3.2c0-1,0.3-1.8,0.9-2.4c0.6-0.6,1.4-1.1,2.5-1.4c-0.4-0.2-0.8-0.5-1.1-0.9s-0.4-0.9-0.4-1.3    c0-0.6,0.2-1.1,0.5-1.5s0.8-0.8,1.5-1.2c-0.8-0.3-1.5-0.9-2-1.7c-0.5-0.8-0.7-1.7-0.7-2.7c0-1.7,0.5-3,1.6-3.9    c1.1-0.9,2.6-1.4,4.5-1.4c0.4,0,0.9,0,1.4,0.1s0.8,0.1,1.1,0.2H200.4z M188.3,180.2c0,0.7,0.3,1.3,1,1.6c0.6,0.4,1.5,0.6,2.7,0.6    c1.8,0,3.1-0.3,4-0.8c0.9-0.5,1.3-1.2,1.3-2c0-0.7-0.2-1.1-0.7-1.4c-0.5-0.3-1.4-0.4-2.7-0.4h-2.5c-0.9,0-1.7,0.2-2.2,0.7    C188.5,178.8,188.3,179.4,188.3,180.2z M189.7,167.3c0,1,0.2,1.7,0.7,2.2c0.5,0.5,1.2,0.8,2.1,0.8c1.9,0,2.9-1,2.9-3.1    c0-1-0.2-1.8-0.7-2.3c-0.5-0.5-1.2-0.8-2.1-0.8c-1,0-1.7,0.3-2.2,0.8S189.7,166.3,189.7,167.3z"></path>
		<path class="st4" d="M223.4,177.8l-2-7.2c-0.2-0.8-0.7-2.5-1.3-5.3H220c-0.5,2.5-1,4.3-1.3,5.4l-2.1,7.2H213l-4.3-15.5h3.4l2,7.6    c0.4,1.9,0.8,3.5,1,4.8h0.1c0.1-0.7,0.2-1.5,0.4-2.3c0.2-0.9,0.4-1.5,0.5-2l2.4-8.1h3.6l2.3,8.1c0.1,0.5,0.3,1.2,0.5,2.1    c0.2,0.9,0.3,1.7,0.4,2.2h0.1c0.1-1.1,0.5-2.8,1-4.8l2-7.6h3.3l-4.4,15.5H223.4z"></path>
		<path class="st4" d="M234,158.2c0-0.6,0.2-1,0.5-1.4s0.8-0.5,1.4-0.5c0.6,0,1,0.2,1.4,0.5c0.3,0.3,0.5,0.8,0.5,1.4    c0,0.6-0.2,1-0.5,1.3c-0.3,0.3-0.8,0.5-1.4,0.5c-0.6,0-1.1-0.2-1.4-0.5C234.1,159.2,234,158.8,234,158.2z M237.4,177.8h-3.3v-15.5    h3.3V177.8z"></path>
		<path class="st4" d="M247.9,175.4c0.8,0,1.6-0.1,2.4-0.4v2.5c-0.4,0.2-0.8,0.3-1.4,0.4s-1.2,0.2-1.8,0.2c-3.1,0-4.7-1.6-4.7-4.9    v-8.3h-2.1v-1.5l2.3-1.2l1.1-3.3h2v3.4h4.4v2.5h-4.4v8.3c0,0.8,0.2,1.4,0.6,1.8S247.3,175.4,247.9,175.4z"></path>
		<path class="st4" d="M267,177.8h-3.3v-9.5c0-1.2-0.2-2.1-0.7-2.7c-0.5-0.6-1.2-0.9-2.3-0.9c-1.4,0-2.4,0.4-3,1.2    c-0.6,0.8-1,2.2-1,4.1v7.7h-3.3V156h3.3v5.5c0,0.9-0.1,1.8-0.2,2.8h0.2c0.4-0.7,1.1-1.3,1.9-1.7c0.8-0.4,1.7-0.6,2.8-0.6    c3.8,0,5.6,1.9,5.6,5.7V177.8z"></path>
		<path class="st4" d="M290,177.8l-0.5-2h-0.2c-0.5,0.7-1.1,1.3-2,1.7c-0.8,0.4-1.8,0.6-2.9,0.6c-1.9,0-3.3-0.5-4.2-1.4    c-0.9-0.9-1.4-2.3-1.4-4.2v-10.1h3.3v9.5c0,1.2,0.2,2.1,0.7,2.7c0.5,0.6,1.2,0.9,2.3,0.9c1.4,0,2.4-0.4,3-1.2c0.6-0.8,1-2.2,1-4.1    v-7.7h3.3v15.5H290z"></path>
		<path class="st4" d="M307.6,173.4c0,1.5-0.6,2.7-1.7,3.5c-1.1,0.8-2.7,1.2-4.7,1.2c-2.1,0-3.7-0.3-5-0.9v-2.8    c1.8,0.8,3.5,1.3,5.1,1.3c2,0,3-0.6,3-1.8c0-0.4-0.1-0.7-0.3-1c-0.2-0.3-0.6-0.5-1.1-0.8c-0.5-0.3-1.2-0.6-2.1-1    c-1.8-0.7-3-1.4-3.6-2.1c-0.6-0.7-0.9-1.6-0.9-2.7c0-1.3,0.5-2.4,1.6-3.1s2.5-1.1,4.4-1.1c1.8,0,3.5,0.4,5.2,1.1l-1.1,2.5    c-1.7-0.7-3.1-1-4.2-1c-1.7,0-2.6,0.5-2.6,1.5c0,0.5,0.2,0.9,0.7,1.2c0.5,0.3,1.4,0.8,3,1.4c1.3,0.5,2.2,0.9,2.8,1.4    c0.6,0.4,1,0.9,1.3,1.4C307.5,172,307.6,172.6,307.6,173.4z"></path>
		<path class="st4" d="M324.4,175.4c0.8,0,1.6-0.1,2.4-0.4v2.5c-0.4,0.2-0.8,0.3-1.4,0.4c-0.6,0.1-1.2,0.2-1.8,0.2    c-3.1,0-4.7-1.6-4.7-4.9v-8.3h-2.1v-1.5l2.3-1.2l1.1-3.3h2v3.4h4.4v2.5h-4.4v8.3c0,0.8,0.2,1.4,0.6,1.8S323.7,175.4,324.4,175.4z"></path>
		<path class="st4" d="M343.5,177.8h-3.3v-9.5c0-1.2-0.2-2.1-0.7-2.7c-0.5-0.6-1.2-0.9-2.3-0.9c-1.4,0-2.4,0.4-3,1.2    c-0.6,0.8-1,2.2-1,4.1v7.7h-3.3V156h3.3v5.5c0,0.9-0.1,1.8-0.2,2.8h0.2c0.4-0.7,1.1-1.3,1.9-1.7c0.8-0.4,1.7-0.6,2.8-0.6    c3.8,0,5.6,1.9,5.6,5.7V177.8z"></path>
		<path class="st4" d="M355.9,162c0.7,0,1.2,0,1.6,0.1l-0.3,3.1c-0.5-0.1-1-0.2-1.5-0.2c-1.3,0-2.4,0.4-3.2,1.3s-1.2,2-1.2,3.3v8.1    h-3.3v-15.5h2.6l0.4,2.7h0.2c0.5-0.9,1.2-1.7,2-2.2C354.1,162.3,355,162,355.9,162z"></path>
		<path class="st4" d="M374.2,170c0,2.5-0.6,4.5-1.9,5.9s-3.1,2.1-5.4,2.1c-1.4,0-2.7-0.3-3.8-1c-1.1-0.7-2-1.6-2.6-2.8    c-0.6-1.2-0.9-2.6-0.9-4.3c0-2.5,0.6-4.5,1.9-5.9c1.3-1.4,3.1-2.1,5.4-2.1c2.2,0,4,0.7,5.3,2.2S374.2,167.6,374.2,170z M362.9,170    c0,3.6,1.3,5.4,4,5.4c2.6,0,3.9-1.8,3.9-5.4c0-3.5-1.3-5.3-3.9-5.3c-1.4,0-2.4,0.5-3,1.4S362.9,168.3,362.9,170z"></path>
		<path class="st4" d="M388.9,177.8l-0.5-2h-0.2c-0.5,0.7-1.1,1.3-2,1.7c-0.8,0.4-1.8,0.6-2.9,0.6c-1.9,0-3.3-0.5-4.2-1.4    c-0.9-0.9-1.4-2.3-1.4-4.2v-10.1h3.3v9.5c0,1.2,0.2,2.1,0.7,2.7c0.5,0.6,1.2,0.9,2.3,0.9c1.4,0,2.4-0.4,3-1.2s1-2.2,1-4.1v-7.7    h3.3v15.5H388.9z"></path>
		<path class="st4" d="M409.2,162.3v1.8l-2.6,0.5c0.2,0.3,0.4,0.7,0.6,1.2c0.2,0.5,0.2,1,0.2,1.5c0,1.6-0.6,2.8-1.7,3.8    c-1.1,0.9-2.6,1.4-4.5,1.4c-0.5,0-0.9,0-1.3-0.1c-0.7,0.4-1.1,1-1.1,1.5c0,0.4,0.2,0.6,0.5,0.8c0.3,0.2,0.9,0.3,1.8,0.3h2.7    c1.7,0,3,0.4,3.9,1.1c0.9,0.7,1.3,1.8,1.3,3.1c0,1.8-0.7,3.1-2.2,4.1c-1.4,1-3.5,1.4-6.3,1.4c-2.1,0-3.7-0.4-4.8-1.1    c-1.1-0.7-1.7-1.8-1.7-3.2c0-1,0.3-1.8,0.9-2.4s1.4-1.1,2.5-1.4c-0.4-0.2-0.8-0.5-1.1-0.9c-0.3-0.4-0.4-0.9-0.4-1.3    c0-0.6,0.2-1.1,0.5-1.5s0.8-0.8,1.5-1.2c-0.8-0.3-1.5-0.9-2-1.7c-0.5-0.8-0.7-1.7-0.7-2.7c0-1.7,0.5-3,1.6-3.9s2.6-1.4,4.5-1.4    c0.4,0,0.9,0,1.4,0.1s0.8,0.1,1.1,0.2H409.2z M397,180.2c0,0.7,0.3,1.3,1,1.6s1.5,0.6,2.7,0.6c1.8,0,3.1-0.3,4-0.8    c0.9-0.5,1.3-1.2,1.3-2c0-0.7-0.2-1.1-0.7-1.4c-0.5-0.3-1.4-0.4-2.7-0.4h-2.5c-0.9,0-1.7,0.2-2.2,0.7    C397.3,178.8,397,179.4,397,180.2z M398.5,167.3c0,1,0.2,1.7,0.7,2.2c0.5,0.5,1.2,0.8,2.1,0.8c1.9,0,2.9-1,2.9-3.1    c0-1-0.2-1.8-0.7-2.3c-0.5-0.5-1.2-0.8-2.1-0.8c-1,0-1.7,0.3-2.2,0.8C398.7,165.5,398.5,166.3,398.5,167.3z"></path>
		<path class="st4" d="M425.7,177.8h-3.3v-9.5c0-1.2-0.2-2.1-0.7-2.7c-0.5-0.6-1.2-0.9-2.3-0.9c-1.4,0-2.4,0.4-3,1.2    c-0.6,0.8-1,2.2-1,4.1v7.7h-3.3V156h3.3v5.5c0,0.9-0.1,1.8-0.2,2.8h0.2c0.4-0.7,1.1-1.3,1.9-1.7c0.8-0.4,1.7-0.6,2.8-0.6    c3.8,0,5.6,1.9,5.6,5.7V177.8z"></path>
	</g>
	<g class="st3">
		<path class="st4" d="M100.7,229.8h-3.3V208h3.3V229.8z"></path>
		<path class="st4" d="M119.1,222c0,2.5-0.6,4.5-1.9,5.9c-1.3,1.4-3.1,2.1-5.4,2.1c-1.4,0-2.7-0.3-3.8-1c-1.1-0.7-2-1.6-2.6-2.8    c-0.6-1.2-0.9-2.6-0.9-4.3c0-2.5,0.6-4.5,1.9-5.9c1.3-1.4,3.1-2.1,5.4-2.1c2.2,0,4,0.7,5.3,2.2S119.1,219.6,119.1,222z M107.8,222    c0,3.6,1.3,5.4,4,5.4c2.6,0,3.9-1.8,3.9-5.4c0-3.5-1.3-5.3-3.9-5.3c-1.4,0-2.4,0.5-3,1.4S107.8,220.3,107.8,222z"></path>
		<path class="st4" d="M129.1,230.1c-2.3,0-4.1-0.7-5.3-2.1c-1.2-1.4-1.8-3.3-1.8-5.9c0-2.6,0.6-4.6,1.9-6s3.1-2.1,5.5-2.1    c1.6,0,3.1,0.3,4.4,0.9l-1,2.6c-1.4-0.5-2.5-0.8-3.4-0.8c-2.7,0-4,1.8-4,5.3c0,1.7,0.3,3,1,3.9c0.7,0.9,1.6,1.3,2.9,1.3    c1.5,0,2.9-0.4,4.2-1.1v2.9c-0.6,0.3-1.2,0.6-1.9,0.7C130.9,230,130.1,230.1,129.1,230.1z"></path>
		<path class="st4" d="M140.3,221.6l1.9-2.3l4.7-5h3.8l-6.2,6.6l6.6,8.8h-3.9l-5-6.8l-1.8,1.5v5.3h-3.3V208h3.3v10.6L140.3,221.6    L140.3,221.6z"></path>
		<path class="st4" d="M158.7,230.1c-1.9,0-3.4-0.7-4.5-2.1c-1.1-1.4-1.6-3.4-1.6-5.9c0-2.5,0.5-4.5,1.6-5.9    c1.1-1.4,2.6-2.1,4.6-2.1c2,0,3.6,0.8,4.6,2.3h0.2c-0.2-1.1-0.2-2-0.2-2.6V208h3.3v21.8H164l-0.6-2h-0.2    C162.3,229.3,160.7,230.1,158.7,230.1z M159.6,227.4c1.4,0,2.3-0.4,3-1.1c0.6-0.8,0.9-2,1-3.7v-0.5c0-1.9-0.3-3.3-1-4.2    c-0.6-0.8-1.6-1.2-3-1.2c-1.2,0-2,0.5-2.7,1.4c-0.6,0.9-0.9,2.3-0.9,4c0,1.7,0.3,3,0.9,3.9C157.4,227,158.3,227.4,159.6,227.4z"></path>
		<path class="st4" d="M185,222c0,2.5-0.6,4.5-1.9,5.9c-1.3,1.4-3.1,2.1-5.4,2.1c-1.4,0-2.7-0.3-3.8-1c-1.1-0.7-2-1.6-2.6-2.8    c-0.6-1.2-0.9-2.6-0.9-4.3c0-2.5,0.6-4.5,1.9-5.9c1.3-1.4,3.1-2.1,5.4-2.1c2.2,0,4,0.7,5.3,2.2S185,219.6,185,222z M173.8,222    c0,3.6,1.3,5.4,4,5.4c2.6,0,3.9-1.8,3.9-5.4c0-3.5-1.3-5.3-3.9-5.3c-1.4,0-2.4,0.5-3,1.4S173.8,220.3,173.8,222z"></path>
		<path class="st4" d="M201.5,229.8l-2-7.2c-0.2-0.8-0.7-2.5-1.3-5.3h-0.1c-0.5,2.5-1,4.3-1.3,5.4l-2.1,7.2h-3.6l-4.3-15.5h3.4    l2,7.6c0.4,1.9,0.8,3.5,1,4.8h0.1c0.1-0.7,0.2-1.5,0.4-2.3c0.2-0.9,0.4-1.5,0.5-2l2.4-8.1h3.6l2.3,8.1c0.1,0.5,0.3,1.2,0.5,2.1    c0.2,0.9,0.3,1.7,0.4,2.2h0.1c0.1-1.1,0.5-2.8,1-4.8l2-7.6h3.3l-4.4,15.5H201.5z"></path>
		<path class="st4" d="M225.8,229.8h-3.3v-9.5c0-1.2-0.2-2.1-0.7-2.7c-0.5-0.6-1.2-0.9-2.3-0.9c-1.4,0-2.4,0.4-3.1,1.2    c-0.6,0.8-1,2.2-1,4.1v7.7h-3.3v-15.5h2.6l0.5,2h0.2c0.5-0.7,1.1-1.3,2-1.7c0.9-0.4,1.8-0.6,2.9-0.6c3.7,0,5.6,1.9,5.6,5.7V229.8z    "></path>
		<path class="st4" d="M229.9,228c0-0.7,0.2-1.2,0.5-1.6s0.9-0.5,1.6-0.5c0.7,0,1.2,0.2,1.5,0.6c0.4,0.4,0.5,0.9,0.5,1.6    s-0.2,1.2-0.5,1.6c-0.4,0.4-0.9,0.6-1.5,0.6c-0.7,0-1.2-0.2-1.5-0.6C230.1,229.3,229.9,228.7,229.9,228z M233.3,223.6h-2.4    l-0.7-14.2h3.9L233.3,223.6z"></path>
	</g>
	<g class="st3">
		<path class="st4" d="M109.3,281.8H97.7v-20.5h11.6v2.8h-8.2v5.6h7.7v2.8h-7.7v6.4h8.2V281.8z"></path>
		<path class="st4" d="M127,281.8h-3.3v-9.5c0-1.2-0.2-2.1-0.7-2.7c-0.5-0.6-1.2-0.9-2.3-0.9c-1.4,0-2.4,0.4-3.1,1.2    c-0.6,0.8-1,2.2-1,4.1v7.7h-3.3v-15.5h2.6l0.5,2h0.2c0.5-0.7,1.1-1.3,2-1.7c0.9-0.4,1.8-0.6,2.9-0.6c3.7,0,5.6,1.9,5.6,5.7V281.8z    "></path>
		<path class="st4" d="M130,288.7c-1,0-1.8-0.1-2.5-0.3v-2.6c0.6,0.2,1.3,0.3,1.9,0.3c1.4,0,2.1-0.8,2.1-2.4v-17.3h3.3v17.5    c0,1.6-0.4,2.8-1.3,3.6C132.8,288.3,131.6,288.7,130,288.7z M131.4,262.2c0-0.6,0.2-1,0.5-1.4s0.8-0.5,1.4-0.5    c0.6,0,1,0.2,1.4,0.5c0.3,0.3,0.5,0.8,0.5,1.4c0,0.6-0.2,1-0.5,1.3c-0.3,0.3-0.8,0.5-1.4,0.5c-0.6,0-1.1-0.2-1.4-0.5    C131.5,263.2,131.4,262.8,131.4,262.2z"></path>
		<path class="st4" d="M153.3,274c0,2.5-0.6,4.5-1.9,5.9c-1.3,1.4-3.1,2.1-5.4,2.1c-1.4,0-2.7-0.3-3.8-1c-1.1-0.7-2-1.6-2.6-2.8    c-0.6-1.2-0.9-2.6-0.9-4.3c0-2.5,0.6-4.5,1.9-5.9c1.3-1.4,3.1-2.1,5.4-2.1c2.2,0,4,0.7,5.3,2.2S153.3,271.6,153.3,274z M142,274    c0,3.6,1.3,5.4,4,5.4c2.6,0,3.9-1.8,3.9-5.4c0-3.5-1.3-5.3-3.9-5.3c-1.4,0-2.4,0.5-3,1.4S142,272.3,142,274z"></path>
		<path class="st4" d="M154.7,266.3h3.6l3.1,8.8c0.5,1.3,0.8,2.4,1,3.5h0.1c0.1-0.5,0.2-1.1,0.5-1.9c0.2-0.7,1.4-4.2,3.6-10.4h3.6    l-6.6,17.5c-1.2,3.2-3.2,4.8-6,4.8c-0.7,0-1.4-0.1-2.1-0.2v-2.6c0.5,0.1,1.1,0.2,1.7,0.2c1.6,0,2.7-0.9,3.3-2.8l0.6-1.5    L154.7,266.3z"></path>
		<path class="st4" d="M189.6,281.8l-0.7-2.2h-0.1c-0.7,0.9-1.5,1.6-2.3,1.9c-0.8,0.3-1.7,0.5-2.9,0.5c-1.5,0-2.7-0.4-3.6-1.2    c-0.9-0.8-1.3-2-1.3-3.5c0-1.6,0.6-2.8,1.8-3.6c1.2-0.8,3-1.3,5.4-1.3l2.7-0.1v-0.8c0-1-0.2-1.7-0.7-2.2c-0.5-0.5-1.2-0.7-2.1-0.7    c-0.8,0-1.6,0.1-2.3,0.3c-0.7,0.2-1.4,0.5-2.1,0.8l-1.1-2.4c0.8-0.4,1.8-0.8,2.8-1c1-0.2,1.9-0.3,2.8-0.3c2,0,3.5,0.4,4.5,1.3    c1,0.9,1.5,2.2,1.5,4v10.4H189.6z M184.7,279.6c1.2,0,2.2-0.3,2.9-1c0.7-0.7,1.1-1.6,1.1-2.8v-1.3l-2,0.1    c-1.5,0.1-2.7,0.3-3.4,0.8c-0.7,0.5-1.1,1.2-1.1,2.1c0,0.7,0.2,1.2,0.6,1.6C183.2,279.4,183.8,279.6,184.7,279.6z"></path>
		<path class="st4" d="M211.7,268.8h-3.8v13h-3.3v-13h-2.5v-1.5l2.5-1v-1c0-1.8,0.4-3.2,1.3-4.1c0.9-0.9,2.2-1.3,3.9-1.3    c1.2,0,2.3,0.2,3.4,0.6l-0.9,2.5c-0.8-0.3-1.6-0.4-2.3-0.4c-0.7,0-1.3,0.2-1.6,0.7c-0.3,0.5-0.5,1.2-0.5,2.1v1h3.8V268.8z"></path>
		<path class="st4" d="M222.2,266c0.7,0,1.2,0,1.6,0.1l-0.3,3.1c-0.5-0.1-1-0.2-1.5-0.2c-1.3,0-2.4,0.4-3.2,1.3    c-0.8,0.9-1.2,2-1.2,3.3v8.1h-3.3v-15.5h2.6l0.4,2.7h0.2c0.5-0.9,1.2-1.7,2-2.2C220.4,266.3,221.2,266,222.2,266z"></path>
		<path class="st4" d="M233.5,282.1c-2.4,0-4.3-0.7-5.6-2.1s-2-3.3-2-5.8c0-2.5,0.6-4.5,1.9-6c1.3-1.4,3-2.2,5.2-2.2    c2,0,3.7,0.6,4.8,1.9c1.2,1.2,1.8,2.9,1.8,5.1v1.8h-10.3c0,1.5,0.5,2.7,1.2,3.5c0.8,0.8,1.8,1.2,3.2,1.2c0.9,0,1.8-0.1,2.6-0.3    c0.8-0.2,1.6-0.5,2.5-0.9v2.7c-0.8,0.4-1.6,0.7-2.4,0.8C235.5,282,234.5,282.1,233.5,282.1z M232.9,268.5c-1,0-1.9,0.3-2.5,1    c-0.6,0.7-1,1.6-1.1,2.9h7c0-1.3-0.3-2.2-0.9-2.9C234.7,268.9,233.9,268.5,232.9,268.5z"></path>
		<path class="st4" d="M250,282.1c-2.4,0-4.3-0.7-5.6-2.1s-2-3.3-2-5.8c0-2.5,0.6-4.5,1.9-6c1.3-1.4,3-2.2,5.2-2.2    c2,0,3.7,0.6,4.8,1.9c1.2,1.2,1.8,2.9,1.8,5.1v1.8h-10.3c0,1.5,0.5,2.7,1.2,3.5c0.8,0.8,1.8,1.2,3.2,1.2c0.9,0,1.8-0.1,2.6-0.3    c0.8-0.2,1.6-0.5,2.5-0.9v2.7c-0.8,0.4-1.6,0.7-2.4,0.8C252,282,251,282.1,250,282.1z M249.4,268.5c-1,0-1.9,0.3-2.5,1    c-0.6,0.7-1,1.6-1.1,2.9h7c0-1.3-0.3-2.2-0.9-2.9C251.2,268.9,250.4,268.5,249.4,268.5z"></path>
		<path class="st4" d="M280.2,266.3v1.8l-2.6,0.5c0.2,0.3,0.4,0.7,0.6,1.2s0.2,1,0.2,1.5c0,1.6-0.6,2.8-1.7,3.8    c-1.1,0.9-2.6,1.4-4.5,1.4c-0.5,0-0.9,0-1.3-0.1c-0.7,0.4-1.1,1-1.1,1.5c0,0.4,0.2,0.6,0.5,0.8c0.3,0.2,0.9,0.3,1.8,0.3h2.7    c1.7,0,3,0.4,3.9,1.1s1.3,1.8,1.3,3.1c0,1.8-0.7,3.1-2.2,4.1c-1.4,1-3.5,1.4-6.3,1.4c-2.1,0-3.7-0.4-4.8-1.1    c-1.1-0.7-1.7-1.8-1.7-3.2c0-1,0.3-1.8,0.9-2.4c0.6-0.6,1.4-1.1,2.5-1.4c-0.4-0.2-0.8-0.5-1.1-0.9s-0.4-0.9-0.4-1.3    c0-0.6,0.2-1.1,0.5-1.5s0.8-0.8,1.5-1.2c-0.8-0.3-1.5-0.9-2-1.7c-0.5-0.8-0.7-1.7-0.7-2.7c0-1.7,0.5-3,1.6-3.9    c1.1-0.9,2.6-1.4,4.5-1.4c0.4,0,0.9,0,1.4,0.1s0.8,0.1,1.1,0.2H280.2z M268.1,284.2c0,0.7,0.3,1.3,1,1.6c0.6,0.4,1.5,0.6,2.7,0.6    c1.8,0,3.1-0.3,4-0.8c0.9-0.5,1.3-1.2,1.3-2c0-0.7-0.2-1.1-0.7-1.4c-0.5-0.3-1.4-0.4-2.7-0.4h-2.5c-0.9,0-1.7,0.2-2.2,0.7    C268.4,282.8,268.1,283.4,268.1,284.2z M269.5,271.3c0,1,0.2,1.7,0.7,2.2c0.5,0.5,1.2,0.8,2.1,0.8c1.9,0,2.9-1,2.9-3.1    c0-1-0.2-1.8-0.7-2.3c-0.5-0.5-1.2-0.8-2.1-0.8c-1,0-1.7,0.3-2.2,0.8S269.5,270.3,269.5,271.3z"></path>
		<path class="st4" d="M282.9,262.2c0-0.6,0.2-1,0.5-1.4s0.8-0.5,1.4-0.5c0.6,0,1,0.2,1.4,0.5c0.3,0.3,0.5,0.8,0.5,1.4    c0,0.6-0.2,1-0.5,1.3c-0.3,0.3-0.8,0.5-1.4,0.5c-0.6,0-1.1-0.2-1.4-0.5C283.1,263.2,282.9,262.8,282.9,262.2z M286.4,281.8h-3.3    v-15.5h3.3V281.8z"></path>
		<path class="st4" d="M298.9,268.8h-3.8v13h-3.3v-13h-2.5v-1.5l2.5-1v-1c0-1.8,0.4-3.2,1.3-4.1c0.9-0.9,2.2-1.3,3.9-1.3    c1.2,0,2.3,0.2,3.4,0.6l-0.9,2.5c-0.8-0.3-1.6-0.4-2.3-0.4c-0.7,0-1.3,0.2-1.6,0.7c-0.3,0.5-0.5,1.2-0.5,2.1v1h3.8V268.8z"></path>
		<path class="st4" d="M307.3,279.4c0.8,0,1.6-0.1,2.4-0.4v2.5c-0.4,0.2-0.8,0.3-1.4,0.4c-0.6,0.1-1.2,0.2-1.8,0.2    c-3.1,0-4.7-1.6-4.7-4.9v-8.3h-2.1v-1.5l2.3-1.2l1.1-3.3h2v3.4h4.4v2.5h-4.4v8.3c0,0.8,0.2,1.4,0.6,1.8S306.6,279.4,307.3,279.4z"></path>
		<path class="st4" d="M328,268.8h-3.8v13h-3.3v-13h-2.5v-1.5l2.5-1v-1c0-1.8,0.4-3.2,1.3-4.1c0.9-0.9,2.2-1.3,3.9-1.3    c1.2,0,2.3,0.2,3.4,0.6l-0.9,2.5c-0.8-0.3-1.6-0.4-2.3-0.4c-0.7,0-1.3,0.2-1.6,0.7c-0.3,0.5-0.5,1.2-0.5,2.1v1h3.8V268.8z"></path>
		<path class="st4" d="M338.5,266c0.7,0,1.2,0,1.6,0.1l-0.3,3.1c-0.5-0.1-1-0.2-1.5-0.2c-1.3,0-2.4,0.4-3.2,1.3s-1.2,2-1.2,3.3v8.1    h-3.3v-15.5h2.6l0.4,2.7h0.2c0.5-0.9,1.2-1.7,2-2.2C336.6,266.3,337.5,266,338.5,266z"></path>
		<path class="st4" d="M356.7,274c0,2.5-0.6,4.5-1.9,5.9s-3.1,2.1-5.4,2.1c-1.4,0-2.7-0.3-3.8-1c-1.1-0.7-2-1.6-2.6-2.8    c-0.6-1.2-0.9-2.6-0.9-4.3c0-2.5,0.6-4.5,1.9-5.9c1.3-1.4,3.1-2.1,5.4-2.1c2.2,0,4,0.7,5.3,2.2S356.7,271.6,356.7,274z M345.4,274    c0,3.6,1.3,5.4,4,5.4c2.6,0,3.9-1.8,3.9-5.4c0-3.5-1.3-5.3-3.9-5.3c-1.4,0-2.4,0.5-3,1.4S345.4,272.3,345.4,274z"></path>
		<path class="st4" d="M373.5,281.8h-3.3v-9.5c0-1.2-0.2-2.1-0.7-2.7c-0.4-0.6-1.1-0.9-2.1-0.9c-1.3,0-2.2,0.4-2.8,1.2    c-0.6,0.8-0.9,2.2-0.9,4.1v7.7h-3.3v-15.5h2.6l0.5,2h0.2c0.4-0.7,1.1-1.3,1.9-1.7c0.8-0.4,1.7-0.6,2.7-0.6c2.4,0,4,0.8,4.7,2.4    h0.2c0.5-0.8,1.1-1.4,1.9-1.8c0.8-0.4,1.8-0.6,2.9-0.6c1.8,0,3.2,0.5,4,1.4c0.8,0.9,1.3,2.4,1.3,4.3v10.1H380v-9.5    c0-1.2-0.2-2.1-0.7-2.7c-0.5-0.6-1.2-0.9-2.1-0.9c-1.3,0-2.2,0.4-2.8,1.2c-0.6,0.8-0.9,2-0.9,3.7V281.8z"></path>
		<path class="st4" d="M406.2,281.8l-0.5-2h-0.2c-0.5,0.7-1.1,1.3-2,1.7c-0.8,0.4-1.8,0.6-2.9,0.6c-1.9,0-3.3-0.5-4.2-1.4    c-0.9-0.9-1.4-2.3-1.4-4.2v-10.1h3.3v9.5c0,1.2,0.2,2.1,0.7,2.7c0.5,0.6,1.2,0.9,2.3,0.9c1.4,0,2.4-0.4,3-1.2s1-2.2,1-4.1v-7.7    h3.3v15.5H406.2z"></path>
		<path class="st4" d="M423.9,277.4c0,1.5-0.6,2.7-1.7,3.5c-1.1,0.8-2.7,1.2-4.7,1.2c-2.1,0-3.7-0.3-5-0.9v-2.8    c1.8,0.8,3.5,1.3,5.1,1.3c2,0,3-0.6,3-1.8c0-0.4-0.1-0.7-0.3-1c-0.2-0.3-0.6-0.5-1.1-0.8c-0.5-0.3-1.2-0.6-2.1-1    c-1.8-0.7-3-1.4-3.6-2.1c-0.6-0.7-0.9-1.6-0.9-2.7c0-1.3,0.5-2.4,1.6-3.1s2.5-1.1,4.4-1.1c1.8,0,3.5,0.4,5.2,1.1l-1.1,2.5    c-1.7-0.7-3.1-1-4.2-1c-1.7,0-2.6,0.5-2.6,1.5c0,0.5,0.2,0.9,0.7,1.2c0.5,0.3,1.4,0.8,3,1.4c1.3,0.5,2.2,0.9,2.8,1.4    c0.6,0.4,1,0.9,1.3,1.4C423.8,276,423.9,276.6,423.9,277.4z"></path>
		<path class="st4" d="M433.6,275.5v-2.8h7.2v2.8H433.6z"></path>
	</g>
	<g class="st3">
		<path class="st4" d="M105.2,334.1c-2,0-3.5-0.7-4.6-2.1h-0.2c0.1,1.3,0.2,2.1,0.2,2.4v6.3h-3.3v-22.4h2.7c0.1,0.3,0.2,1,0.5,2.1    h0.2c1-1.6,2.6-2.4,4.6-2.4c1.9,0,3.4,0.7,4.5,2.1c1.1,1.4,1.6,3.4,1.6,5.9s-0.5,4.5-1.6,5.9S107.2,334.1,105.2,334.1z     M104.4,320.7c-1.3,0-2.3,0.4-2.9,1.1c-0.6,0.8-0.9,2-0.9,3.7v0.5c0,1.9,0.3,3.2,0.9,4.1c0.6,0.8,1.6,1.3,2.9,1.3    c1.1,0,2-0.5,2.6-1.4c0.6-0.9,0.9-2.3,0.9-4c0-1.7-0.3-3-0.9-3.9C106.5,321.2,105.6,320.7,104.4,320.7z"></path>
		<path class="st4" d="M123.1,318c0.7,0,1.2,0,1.6,0.1l-0.3,3.1c-0.5-0.1-1-0.2-1.5-0.2c-1.3,0-2.4,0.4-3.2,1.3    c-0.8,0.9-1.2,2-1.2,3.3v8.1h-3.3v-15.5h2.6l0.4,2.7h0.2c0.5-0.9,1.2-1.7,2-2.2C121.3,318.3,122.1,318,123.1,318z"></path>
		<path class="st4" d="M134.4,334.1c-2.4,0-4.3-0.7-5.6-2.1s-2-3.3-2-5.8c0-2.5,0.6-4.5,1.9-6c1.3-1.4,3-2.2,5.2-2.2    c2,0,3.7,0.6,4.8,1.9c1.2,1.2,1.8,2.9,1.8,5.1v1.8h-10.3c0,1.5,0.5,2.7,1.2,3.5c0.8,0.8,1.8,1.2,3.2,1.2c0.9,0,1.8-0.1,2.6-0.3    c0.8-0.2,1.6-0.5,2.5-0.9v2.7c-0.8,0.4-1.6,0.7-2.4,0.8C136.4,334,135.4,334.1,134.4,334.1z M133.8,320.5c-1,0-1.9,0.3-2.5,1    s-1,1.6-1.1,2.9h7c0-1.3-0.3-2.2-0.9-2.9C135.6,320.9,134.8,320.5,133.8,320.5z"></path>
		<path class="st4" d="M154.5,329.4c0,1.5-0.6,2.7-1.7,3.5c-1.1,0.8-2.7,1.2-4.7,1.2c-2.1,0-3.7-0.3-5-0.9v-2.8    c1.8,0.8,3.5,1.3,5.1,1.3c2,0,3-0.6,3-1.8c0-0.4-0.1-0.7-0.3-1c-0.2-0.3-0.6-0.5-1.1-0.8c-0.5-0.3-1.2-0.6-2.1-1    c-1.8-0.7-3-1.4-3.6-2.1c-0.6-0.7-0.9-1.6-0.9-2.7c0-1.3,0.5-2.4,1.6-3.1c1.1-0.7,2.5-1.1,4.4-1.1c1.8,0,3.5,0.4,5.2,1.1l-1.1,2.5    c-1.7-0.7-3.1-1-4.2-1c-1.7,0-2.6,0.5-2.6,1.5c0,0.5,0.2,0.9,0.7,1.2s1.4,0.8,3,1.4c1.3,0.5,2.2,0.9,2.8,1.4s1,0.9,1.3,1.4    C154.4,328,154.5,328.6,154.5,329.4z"></path>
		<path class="st4" d="M164.8,334.1c-2.4,0-4.3-0.7-5.6-2.1s-2-3.3-2-5.8c0-2.5,0.6-4.5,1.9-6c1.3-1.4,3-2.2,5.2-2.2    c2,0,3.7,0.6,4.8,1.9c1.2,1.2,1.8,2.9,1.8,5.1v1.8h-10.3c0,1.5,0.5,2.7,1.2,3.5c0.8,0.8,1.8,1.2,3.2,1.2c0.9,0,1.8-0.1,2.6-0.3    c0.8-0.2,1.6-0.5,2.5-0.9v2.7c-0.8,0.4-1.6,0.7-2.4,0.8C166.8,334,165.9,334.1,164.8,334.1z M164.2,320.5c-1,0-1.9,0.3-2.5,1    s-1,1.6-1.1,2.9h7c0-1.3-0.3-2.2-0.9-2.9C166.1,320.9,165.3,320.5,164.2,320.5z"></path>
		<path class="st4" d="M188.2,333.8h-3.3v-9.5c0-1.2-0.2-2.1-0.7-2.7s-1.2-0.9-2.3-0.9c-1.4,0-2.4,0.4-3.1,1.2c-0.6,0.8-1,2.2-1,4.1    v7.7h-3.3v-15.5h2.6l0.5,2h0.2c0.5-0.7,1.1-1.3,2-1.7c0.9-0.4,1.8-0.6,2.9-0.6c3.7,0,5.6,1.9,5.6,5.7V333.8z"></path>
		<path class="st4" d="M198.5,331.4c0.8,0,1.6-0.1,2.4-0.4v2.5c-0.4,0.2-0.8,0.3-1.4,0.4s-1.2,0.2-1.8,0.2c-3.1,0-4.7-1.6-4.7-4.9    v-8.3H191v-1.5l2.3-1.2l1.1-3.3h2v3.4h4.4v2.5h-4.4v8.3c0,0.8,0.2,1.4,0.6,1.8C197.4,331.2,197.9,331.4,198.5,331.4z"></path>
		<path class="st4" d="M209.1,318.3h3.6l3.1,8.8c0.5,1.3,0.8,2.4,1,3.5h0.1c0.1-0.5,0.2-1.1,0.5-1.9c0.2-0.7,1.4-4.2,3.6-10.4h3.6    l-6.6,17.5c-1.2,3.2-3.2,4.8-6,4.8c-0.7,0-1.4-0.1-2.1-0.2v-2.6c0.5,0.1,1.1,0.2,1.7,0.2c1.6,0,2.7-0.9,3.3-2.8l0.6-1.5    L209.1,318.3z"></path>
		<path class="st4" d="M240.6,326c0,2.5-0.6,4.5-1.9,5.9c-1.3,1.4-3.1,2.1-5.4,2.1c-1.4,0-2.7-0.3-3.8-1c-1.1-0.7-2-1.6-2.6-2.8    s-0.9-2.6-0.9-4.3c0-2.5,0.6-4.5,1.9-5.9s3.1-2.1,5.4-2.1c2.2,0,4,0.7,5.3,2.2S240.6,323.6,240.6,326z M229.3,326    c0,3.6,1.3,5.4,4,5.4c2.6,0,3.9-1.8,3.9-5.4c0-3.5-1.3-5.3-3.9-5.3c-1.4,0-2.4,0.5-3,1.4S229.3,324.3,229.3,326z"></path>
		<path class="st4" d="M255.3,333.8l-0.5-2h-0.2c-0.5,0.7-1.1,1.3-2,1.7c-0.8,0.4-1.8,0.6-2.9,0.6c-1.9,0-3.3-0.5-4.2-1.4    c-0.9-0.9-1.4-2.3-1.4-4.2v-10.1h3.3v9.5c0,1.2,0.2,2.1,0.7,2.7c0.5,0.6,1.2,0.9,2.3,0.9c1.4,0,2.4-0.4,3-1.2c0.6-0.8,1-2.2,1-4.1    v-7.7h3.3v15.5H255.3z"></path>
		<path class="st4" d="M270.4,318c0.7,0,1.2,0,1.6,0.1l-0.3,3.1c-0.5-0.1-1-0.2-1.5-0.2c-1.3,0-2.4,0.4-3.2,1.3    c-0.8,0.9-1.2,2-1.2,3.3v8.1h-3.3v-15.5h2.6l0.4,2.7h0.2c0.5-0.9,1.2-1.7,2-2.2C268.5,318.3,269.4,318,270.4,318z"></path>
		<path class="st4" d="M294.3,313.3h3.5l-7.2,20.5h-3.5l-7.1-20.5h3.4l4.3,12.7c0.2,0.6,0.5,1.4,0.7,2.3c0.3,1,0.4,1.7,0.5,2.1    c0.1-0.7,0.3-1.5,0.6-2.5c0.3-0.9,0.5-1.6,0.6-2.1L294.3,313.3z"></path>
		<path class="st4" d="M300.5,333.8v-20.5h3.3v20.5H300.5z"></path>
		<path class="st4" d="M322.8,319.5c0,2.1-0.7,3.8-2.1,4.9s-3.4,1.7-6,1.7h-2.1v7.7h-3.3v-20.5h5.9c2.6,0,4.5,0.5,5.7,1.6    S322.8,317.5,322.8,319.5z M312.6,323.3h1.8c1.7,0,3-0.3,3.8-0.9c0.8-0.6,1.2-1.5,1.2-2.8c0-1.2-0.4-2.1-1.1-2.6    c-0.7-0.6-1.8-0.9-3.4-0.9h-2.3V323.3z"></path>
		<path class="st4" d="M340.2,334.1c-2.3,0-4.1-0.7-5.3-2.1c-1.2-1.4-1.8-3.3-1.8-5.9c0-2.6,0.6-4.6,1.9-6c1.3-1.4,3.1-2.1,5.5-2.1    c1.6,0,3.1,0.3,4.4,0.9l-1,2.6c-1.4-0.5-2.5-0.8-3.4-0.8c-2.7,0-4,1.8-4,5.3c0,1.7,0.3,3,1,3.9c0.7,0.9,1.6,1.3,2.9,1.3    c1.5,0,2.8-0.4,4.2-1.1v2.9c-0.6,0.3-1.2,0.6-1.9,0.7S341.2,334.1,340.2,334.1z"></path>
		<path class="st4" d="M357.9,333.8l-0.7-2.2h-0.1c-0.7,0.9-1.5,1.6-2.3,1.9s-1.7,0.5-2.9,0.5c-1.5,0-2.7-0.4-3.6-1.2    s-1.3-2-1.3-3.5c0-1.6,0.6-2.8,1.8-3.6c1.2-0.8,3-1.3,5.4-1.3l2.7-0.1v-0.8c0-1-0.2-1.7-0.7-2.2c-0.5-0.5-1.2-0.7-2.1-0.7    c-0.8,0-1.6,0.1-2.3,0.3c-0.7,0.2-1.4,0.5-2.1,0.8l-1.1-2.3c0.8-0.4,1.8-0.8,2.8-1c1-0.2,1.9-0.3,2.8-0.3c2,0,3.5,0.4,4.5,1.3    c1,0.9,1.5,2.2,1.5,4v10.4H357.9z M353,331.6c1.2,0,2.2-0.3,2.9-1c0.7-0.7,1.1-1.6,1.1-2.8v-1.3l-2,0.1c-1.5,0.1-2.7,0.3-3.4,0.8    c-0.7,0.5-1.1,1.2-1.1,2.1c0,0.7,0.2,1.2,0.6,1.6C351.5,331.4,352.1,331.6,353,331.6z"></path>
		<path class="st4" d="M372.7,318c0.7,0,1.2,0,1.6,0.1l-0.3,3.1c-0.5-0.1-1-0.2-1.5-0.2c-1.3,0-2.4,0.4-3.2,1.3    c-0.8,0.9-1.2,2-1.2,3.3v8.1h-3.3v-15.5h2.6l0.4,2.7h0.2c0.5-0.9,1.2-1.7,2-2.2C370.8,318.3,371.7,318,372.7,318z"></path>
		<path class="st4" d="M382.4,334.1c-1.9,0-3.4-0.7-4.5-2.1c-1.1-1.4-1.6-3.4-1.6-5.9c0-2.5,0.5-4.5,1.6-5.9    c1.1-1.4,2.6-2.1,4.6-2.1c2,0,3.6,0.8,4.6,2.3h0.2c-0.2-1.1-0.2-2-0.2-2.6V312h3.3v21.8h-2.6l-0.6-2H387    C386,333.3,384.4,334.1,382.4,334.1z M383.3,331.4c1.4,0,2.3-0.4,3-1.1c0.6-0.8,0.9-2,1-3.7v-0.5c0-1.9-0.3-3.3-1-4.2    s-1.6-1.2-3-1.2c-1.2,0-2,0.5-2.7,1.4s-0.9,2.3-0.9,4c0,1.7,0.3,3,0.9,3.9C381.1,331,382,331.4,383.3,331.4z"></path>
		<path class="st4" d="M416.2,326c0,2.5-0.6,4.5-1.9,5.9s-3.1,2.1-5.4,2.1c-1.4,0-2.7-0.3-3.8-1s-2-1.6-2.6-2.8    c-0.6-1.2-0.9-2.6-0.9-4.3c0-2.5,0.6-4.5,1.9-5.9s3.1-2.1,5.4-2.1c2.2,0,4,0.7,5.3,2.2S416.2,323.6,416.2,326z M404.9,326    c0,3.6,1.3,5.4,4,5.4c2.6,0,3.9-1.8,3.9-5.4c0-3.5-1.3-5.3-3.9-5.3c-1.4,0-2.4,0.5-3,1.4S404.9,324.3,404.9,326z"></path>
		<path class="st4" d="M433.6,333.8h-3.3v-9.5c0-1.2-0.2-2.1-0.7-2.7s-1.2-0.9-2.3-0.9c-1.4,0-2.4,0.4-3.1,1.2s-1,2.2-1,4.1v7.7H420    v-15.5h2.6l0.5,2h0.2c0.5-0.7,1.1-1.3,2-1.7s1.8-0.6,2.9-0.6c3.7,0,5.6,1.9,5.6,5.7V333.8z"></path>
		<path class="st4" d="M443.2,318.3h3.6l3.1,8.8c0.5,1.3,0.8,2.4,1,3.5h0.1c0.1-0.5,0.2-1.1,0.5-1.9c0.2-0.7,1.4-4.2,3.6-10.4h3.6    l-6.6,17.5c-1.2,3.2-3.2,4.8-6,4.8c-0.7,0-1.4-0.1-2.1-0.2v-2.6c0.5,0.1,1.1,0.2,1.7,0.2c1.6,0,2.7-0.9,3.3-2.8l0.6-1.5    L443.2,318.3z"></path>
		<path class="st4" d="M474.7,326c0,2.5-0.6,4.5-1.9,5.9s-3.1,2.1-5.4,2.1c-1.4,0-2.7-0.3-3.8-1s-2-1.6-2.6-2.8    c-0.6-1.2-0.9-2.6-0.9-4.3c0-2.5,0.6-4.5,1.9-5.9s3.1-2.1,5.4-2.1c2.2,0,4,0.7,5.3,2.2S474.7,323.6,474.7,326z M463.4,326    c0,3.6,1.3,5.4,4,5.4c2.6,0,3.9-1.8,3.9-5.4c0-3.5-1.3-5.3-3.9-5.3c-1.4,0-2.4,0.5-3,1.4S463.4,324.3,463.4,326z"></path>
		<path class="st4" d="M489.4,333.8l-0.5-2h-0.2c-0.5,0.7-1.1,1.3-2,1.7c-0.8,0.4-1.8,0.6-2.9,0.6c-1.9,0-3.3-0.5-4.2-1.4    c-0.9-0.9-1.4-2.3-1.4-4.2v-10.1h3.3v9.5c0,1.2,0.2,2.1,0.7,2.7c0.5,0.6,1.2,0.9,2.3,0.9c1.4,0,2.4-0.4,3-1.2c0.6-0.8,1-2.2,1-4.1    v-7.7h3.3v15.5H489.4z"></path>
		<path class="st4" d="M504.5,318c0.7,0,1.2,0,1.6,0.1l-0.3,3.1c-0.5-0.1-1-0.2-1.5-0.2c-1.3,0-2.4,0.4-3.2,1.3    c-0.8,0.9-1.2,2-1.2,3.3v8.1h-3.3v-15.5h2.6l0.4,2.7h0.2c0.5-0.9,1.2-1.7,2-2.2C502.7,318.3,503.6,318,504.5,318z"></path>
	</g>
	<g class="st3">
		<path class="st4" d="M111,385.8h-3.3v-9.5c0-1.2-0.2-2.1-0.7-2.7c-0.5-0.6-1.2-0.9-2.3-0.9c-1.4,0-2.4,0.4-3.1,1.2    c-0.6,0.8-1,2.2-1,4.1v7.7h-3.3v-15.5h2.6l0.5,2h0.2c0.5-0.7,1.1-1.3,2-1.7c0.9-0.4,1.8-0.6,2.9-0.6c3.7,0,5.6,1.9,5.6,5.7V385.8z    "></path>
		<path class="st4" d="M122.3,386.1c-2.4,0-4.3-0.7-5.6-2.1s-2-3.3-2-5.8c0-2.5,0.6-4.5,1.9-6c1.3-1.4,3-2.2,5.2-2.2    c2,0,3.7,0.6,4.8,1.9c1.2,1.2,1.8,2.9,1.8,5.1v1.8H118c0,1.5,0.5,2.7,1.2,3.5c0.8,0.8,1.8,1.2,3.2,1.2c0.9,0,1.8-0.1,2.6-0.3    c0.8-0.2,1.6-0.5,2.5-0.9v2.7c-0.8,0.4-1.6,0.7-2.4,0.8C124.3,386,123.4,386.1,122.3,386.1z M121.7,372.5c-1,0-1.9,0.3-2.5,1    c-0.6,0.7-1,1.6-1.1,2.9h7c0-1.3-0.3-2.2-0.9-2.9C123.6,372.9,122.8,372.5,121.7,372.5z"></path>
		<path class="st4" d="M135.5,377.9l-5.2-7.6h3.8l3.5,5.4l3.6-5.4h3.7l-5.2,7.6l5.5,7.9h-3.7l-3.8-5.8l-3.8,5.8h-3.7L135.5,377.9z"></path>
		<path class="st4" d="M153.6,383.4c0.8,0,1.6-0.1,2.4-0.4v2.5c-0.4,0.2-0.8,0.3-1.4,0.4s-1.2,0.2-1.8,0.2c-3.1,0-4.7-1.6-4.7-4.9    v-8.3h-2.1v-1.5l2.3-1.2l1.1-3.3h2v3.4h4.4v2.5h-4.4v8.3c0,0.8,0.2,1.4,0.6,1.8S153,383.4,153.6,383.4z"></path>
		<path class="st4" d="M174.4,386.1c-2,0-3.5-0.7-4.6-2.1h-0.2c0.1,1.3,0.2,2.1,0.2,2.4v6.3h-3.3v-22.4h2.7c0.1,0.3,0.2,1,0.5,2.1    h0.2c1-1.6,2.6-2.4,4.6-2.4c1.9,0,3.4,0.7,4.5,2.1c1.1,1.4,1.6,3.4,1.6,5.9c0,2.5-0.5,4.5-1.6,5.9S176.4,386.1,174.4,386.1z     M173.6,372.7c-1.3,0-2.3,0.4-2.9,1.1c-0.6,0.8-0.9,2-0.9,3.7v0.5c0,1.9,0.3,3.2,0.9,4.1c0.6,0.8,1.6,1.3,2.9,1.3    c1.1,0,2-0.5,2.6-1.4c0.6-0.9,0.9-2.3,0.9-4c0-1.7-0.3-3-0.9-3.9C175.7,373.2,174.8,372.7,173.6,372.7z"></path>
		<path class="st4" d="M195.4,385.8l-0.5-2h-0.2c-0.5,0.7-1.1,1.3-2,1.7c-0.8,0.4-1.8,0.6-2.9,0.6c-1.9,0-3.3-0.5-4.2-1.4    c-0.9-0.9-1.4-2.3-1.4-4.2v-10.1h3.3v9.5c0,1.2,0.2,2.1,0.7,2.7c0.5,0.6,1.2,0.9,2.3,0.9c1.4,0,2.4-0.4,3-1.2c0.6-0.8,1-2.2,1-4.1    v-7.7h3.3v15.5H195.4z"></path>
		<path class="st4" d="M210.5,370c0.7,0,1.2,0,1.6,0.1l-0.3,3.1c-0.5-0.1-1-0.2-1.5-0.2c-1.3,0-2.4,0.4-3.2,1.3    c-0.8,0.9-1.2,2-1.2,3.3v8.1h-3.3v-15.5h2.6l0.4,2.7h0.2c0.5-0.9,1.2-1.7,2-2.2C208.6,370.3,209.5,370,210.5,370z"></path>
		<path class="st4" d="M221.2,386.1c-2.3,0-4.1-0.7-5.3-2.1c-1.2-1.4-1.8-3.3-1.8-5.9c0-2.6,0.6-4.6,1.9-6s3.1-2.1,5.5-2.1    c1.6,0,3.1,0.3,4.4,0.9l-1,2.6c-1.4-0.5-2.5-0.8-3.4-0.8c-2.7,0-4,1.8-4,5.3c0,1.7,0.3,3,1,3.9c0.7,0.9,1.6,1.3,2.9,1.3    c1.5,0,2.9-0.4,4.2-1.1v2.9c-0.6,0.3-1.2,0.6-1.9,0.7C223,386,222.2,386.1,221.2,386.1z"></path>
		<path class="st4" d="M242.8,385.8h-3.3v-9.5c0-1.2-0.2-2.1-0.7-2.7c-0.5-0.6-1.2-0.9-2.3-0.9c-1.4,0-2.4,0.4-3,1.2    c-0.6,0.8-1,2.2-1,4.1v7.7h-3.3V364h3.3v5.5c0,0.9-0.1,1.8-0.2,2.8h0.2c0.4-0.7,1.1-1.3,1.9-1.7c0.8-0.4,1.7-0.6,2.8-0.6    c3.8,0,5.6,1.9,5.6,5.7V385.8z"></path>
		<path class="st4" d="M257.1,385.8l-0.7-2.2h-0.1c-0.7,0.9-1.5,1.6-2.3,1.9c-0.8,0.3-1.7,0.5-2.9,0.5c-1.5,0-2.7-0.4-3.6-1.2    c-0.9-0.8-1.3-2-1.3-3.5c0-1.6,0.6-2.8,1.8-3.6c1.2-0.8,3-1.3,5.4-1.3l2.7-0.1v-0.8c0-1-0.2-1.7-0.7-2.2c-0.5-0.5-1.2-0.7-2.1-0.7    c-0.8,0-1.6,0.1-2.3,0.3c-0.7,0.2-1.4,0.5-2.1,0.8l-1.1-2.4c0.8-0.4,1.8-0.8,2.8-1c1-0.2,1.9-0.3,2.8-0.3c2,0,3.5,0.4,4.5,1.3    c1,0.9,1.5,2.2,1.5,4v10.4H257.1z M252.2,383.6c1.2,0,2.2-0.3,2.9-1c0.7-0.7,1.1-1.6,1.1-2.8v-1.3l-2,0.1    c-1.5,0.1-2.7,0.3-3.4,0.8c-0.7,0.5-1.1,1.2-1.1,2.1c0,0.7,0.2,1.2,0.6,1.6C250.7,383.4,251.3,383.6,252.2,383.6z"></path>
		<path class="st4" d="M274.4,381.4c0,1.5-0.6,2.7-1.7,3.5c-1.1,0.8-2.7,1.2-4.7,1.2c-2.1,0-3.7-0.3-5-0.9v-2.8    c1.8,0.8,3.5,1.3,5.1,1.3c2,0,3-0.6,3-1.8c0-0.4-0.1-0.7-0.3-1c-0.2-0.3-0.6-0.5-1.1-0.8c-0.5-0.3-1.2-0.6-2.1-1    c-1.8-0.7-3-1.4-3.6-2.1s-0.9-1.6-0.9-2.7c0-1.3,0.5-2.4,1.6-3.1c1.1-0.7,2.5-1.1,4.4-1.1c1.8,0,3.5,0.4,5.2,1.1l-1.1,2.5    c-1.7-0.7-3.1-1-4.2-1c-1.7,0-2.6,0.5-2.6,1.5c0,0.5,0.2,0.9,0.7,1.2s1.4,0.8,3,1.4c1.3,0.5,2.2,0.9,2.8,1.4    c0.6,0.4,1,0.9,1.3,1.4C274.3,380,274.4,380.6,274.4,381.4z"></path>
		<path class="st4" d="M284.7,386.1c-2.4,0-4.3-0.7-5.6-2.1s-2-3.3-2-5.8c0-2.5,0.6-4.5,1.9-6c1.3-1.4,3-2.2,5.2-2.2    c2,0,3.7,0.6,4.8,1.9c1.2,1.2,1.8,2.9,1.8,5.1v1.8h-10.3c0,1.5,0.5,2.7,1.2,3.5c0.8,0.8,1.8,1.2,3.2,1.2c0.9,0,1.8-0.1,2.6-0.3    c0.8-0.2,1.6-0.5,2.5-0.9v2.7c-0.8,0.4-1.6,0.7-2.4,0.8C286.7,386,285.8,386.1,284.7,386.1z M284.1,372.5c-1,0-1.9,0.3-2.5,1    c-0.6,0.7-1,1.6-1.1,2.9h7c0-1.3-0.3-2.2-0.9-2.9C286,372.9,285.1,372.5,284.1,372.5z"></path>
		<path class="st4" d="M294,384c0-0.7,0.2-1.2,0.5-1.6c0.4-0.4,0.9-0.5,1.5-0.5c0.7,0,1.2,0.2,1.6,0.6c0.4,0.4,0.5,0.9,0.5,1.5    c0,0.7-0.2,1.2-0.5,1.6s-0.9,0.6-1.5,0.6c-0.7,0-1.2-0.2-1.5-0.6C294.1,385.2,294,384.7,294,384z"></path>
		<path class="st4" d="M317.2,385.8h-3.3v-17.6h-6v-2.9h15.4v2.9h-6V385.8z"></path>
		<path class="st4" d="M325,380.4c0-1.2,0.3-2.3,0.9-3.2c0.6-0.9,1.7-1.8,3.2-2.7c-0.9-1-1.5-1.9-1.8-2.6s-0.5-1.5-0.5-2.2    c0-1.4,0.5-2.5,1.5-3.4c1-0.8,2.4-1.2,4.1-1.2c1.7,0,2.9,0.4,3.9,1.2s1.4,1.9,1.4,3.2c0,1.1-0.3,2-0.9,2.9s-1.7,1.7-3.2,2.6    l4.8,4.7c0.8-1,1.4-2.5,1.9-4.4h3.4c-0.7,2.6-1.7,4.8-3.1,6.5l4.2,4.1h-4.2l-2.1-2c-1,0.8-2,1.3-3,1.7c-1.1,0.4-2.3,0.6-3.6,0.6    c-2.1,0-3.8-0.5-5.1-1.5C325.6,383.5,325,382.1,325,380.4z M332,383.2c1.7,0,3.2-0.5,4.4-1.5l-5.4-5.3c-1,0.6-1.7,1.2-2,1.8    s-0.6,1.2-0.6,1.9c0,0.9,0.3,1.7,1,2.2C330.1,383,331,383.2,332,383.2z M330,369.7c0,0.6,0.2,1.1,0.5,1.7s0.7,1.1,1.3,1.7    c1.1-0.6,1.8-1.2,2.2-1.7c0.4-0.5,0.6-1.1,0.6-1.7c0-0.6-0.2-1.1-0.6-1.5c-0.4-0.4-0.9-0.5-1.6-0.5c-0.7,0-1.3,0.2-1.8,0.6    S330,369.1,330,369.7z"></path>
		<path class="st4" d="M356.3,367.9c-1.9,0-3.4,0.7-4.5,2c-1.1,1.4-1.7,3.2-1.7,5.6c0,2.5,0.5,4.4,1.6,5.7s2.6,1.9,4.6,1.9    c0.9,0,1.7-0.1,2.5-0.3c0.8-0.2,1.7-0.4,2.5-0.7v2.9c-1.6,0.6-3.4,0.9-5.5,0.9c-3,0-5.3-0.9-6.9-2.7s-2.4-4.4-2.4-7.8    c0-2.1,0.4-4,1.2-5.6c0.8-1.6,1.9-2.8,3.4-3.7c1.5-0.8,3.2-1.3,5.2-1.3c2.1,0,4,0.4,5.8,1.3l-1.2,2.8c-0.7-0.3-1.4-0.6-2.2-0.9    S357.1,367.9,356.3,367.9z"></path>
		<path class="st4" d="M375.8,381.4c0,1.5-0.6,2.7-1.7,3.5c-1.1,0.8-2.7,1.2-4.7,1.2c-2.1,0-3.7-0.3-5-0.9v-2.8    c1.8,0.8,3.5,1.3,5.1,1.3c2,0,3-0.6,3-1.8c0-0.4-0.1-0.7-0.3-1c-0.2-0.3-0.6-0.5-1.1-0.8c-0.5-0.3-1.2-0.6-2.1-1    c-1.8-0.7-3-1.4-3.6-2.1c-0.6-0.7-0.9-1.6-0.9-2.7c0-1.3,0.5-2.4,1.6-3.1s2.5-1.1,4.4-1.1c1.8,0,3.5,0.4,5.2,1.1l-1.1,2.5    c-1.7-0.7-3.1-1-4.2-1c-1.7,0-2.6,0.5-2.6,1.5c0,0.5,0.2,0.9,0.7,1.2c0.5,0.3,1.4,0.8,3,1.4c1.3,0.5,2.2,0.9,2.8,1.4    c0.6,0.4,1,0.9,1.3,1.4C375.6,380,375.8,380.6,375.8,381.4z"></path>
		<path class="st4" d="M396.5,385.8l-0.7-2.2h-0.1c-0.7,0.9-1.5,1.6-2.3,1.9c-0.8,0.3-1.7,0.5-2.9,0.5c-1.5,0-2.7-0.4-3.6-1.2    c-0.9-0.8-1.3-2-1.3-3.5c0-1.6,0.6-2.8,1.8-3.6s3-1.3,5.4-1.3l2.7-0.1v-0.8c0-1-0.2-1.7-0.7-2.2c-0.5-0.5-1.2-0.7-2.1-0.7    c-0.8,0-1.6,0.1-2.3,0.3s-1.4,0.5-2.1,0.8l-1.1-2.4c0.8-0.4,1.8-0.8,2.8-1c1-0.2,1.9-0.3,2.8-0.3c2,0,3.5,0.4,4.5,1.3    s1.5,2.2,1.5,4v10.4H396.5z M391.6,383.6c1.2,0,2.2-0.3,2.9-1c0.7-0.7,1.1-1.6,1.1-2.8v-1.3l-2,0.1c-1.5,0.1-2.7,0.3-3.4,0.8    c-0.7,0.5-1.1,1.2-1.1,2.1c0,0.7,0.2,1.2,0.6,1.6C390.1,383.4,390.7,383.6,391.6,383.6z"></path>
		<path class="st4" d="M411.2,386.1c-2,0-3.5-0.7-4.6-2.1h-0.2c0.1,1.3,0.2,2.1,0.2,2.4v6.3h-3.3v-22.4h2.7c0.1,0.3,0.2,1,0.5,2.1    h0.2c1-1.6,2.6-2.4,4.6-2.4c1.9,0,3.4,0.7,4.5,2.1c1.1,1.4,1.6,3.4,1.6,5.9c0,2.5-0.5,4.5-1.6,5.9    C414.7,385.4,413.2,386.1,411.2,386.1z M410.4,372.7c-1.3,0-2.3,0.4-2.9,1.1c-0.6,0.8-0.9,2-0.9,3.7v0.5c0,1.9,0.3,3.2,0.9,4.1    c0.6,0.8,1.6,1.3,2.9,1.3c1.1,0,2-0.5,2.6-1.4c0.6-0.9,0.9-2.3,0.9-4c0-1.7-0.3-3-0.9-3.9C412.5,373.2,411.6,372.7,410.4,372.7z"></path>
		<path class="st4" d="M429.1,386.1c-2,0-3.5-0.7-4.6-2.1h-0.2c0.1,1.3,0.2,2.1,0.2,2.4v6.3h-3.3v-22.4h2.7c0.1,0.3,0.2,1,0.5,2.1    h0.2c1-1.6,2.6-2.4,4.6-2.4c1.9,0,3.4,0.7,4.5,2.1c1.1,1.4,1.6,3.4,1.6,5.9c0,2.5-0.5,4.5-1.6,5.9    C432.5,385.4,431,386.1,429.1,386.1z M428.3,372.7c-1.3,0-2.3,0.4-2.9,1.1c-0.6,0.8-0.9,2-0.9,3.7v0.5c0,1.9,0.3,3.2,0.9,4.1    c0.6,0.8,1.6,1.3,2.9,1.3c1.1,0,2-0.5,2.6-1.4c0.6-0.9,0.9-2.3,0.9-4c0-1.7-0.3-3-0.9-3.9C430.4,373.2,429.5,372.7,428.3,372.7z"></path>
		<path class="st4" d="M442.4,385.8h-3.3V364h3.3V385.8z"></path>
		<path class="st4" d="M444.7,370.3h3.6l3.1,8.8c0.5,1.3,0.8,2.4,1,3.5h0.1c0.1-0.5,0.2-1.1,0.5-1.9c0.2-0.7,1.4-4.2,3.6-10.4h3.6    l-6.6,17.5c-1.2,3.2-3.2,4.8-6,4.8c-0.7,0-1.4-0.1-2.1-0.2v-2.6c0.5,0.1,1.1,0.2,1.7,0.2c1.6,0,2.7-0.9,3.3-2.8l0.6-1.5    L444.7,370.3z"></path>
		<path class="st4" d="M462,384c0-0.7,0.2-1.2,0.5-1.6s0.9-0.5,1.5-0.5c0.7,0,1.2,0.2,1.6,0.6c0.4,0.4,0.5,0.9,0.5,1.5    c0,0.7-0.2,1.2-0.5,1.6c-0.4,0.4-0.9,0.6-1.5,0.6c-0.7,0-1.2-0.2-1.5-0.6S462,384.7,462,384z"></path>
	</g>
</g>
</svg>
