<svg id="Layer_1" data-name="Layer 1" xmlns="http://www.w3.org/2000/svg" viewBox="0 0 93.69 80"><defs><style>.cls-1{fill:#efd5d5;}.cls-2{fill:#d88080;}.cls-3,.cls-4{fill:none;stroke-linecap:round;stroke-miterlimit:10;stroke-width:2px;}.cls-3{stroke:#c14646;}.cls-4{stroke:#bc3737;}</style></defs><path class="cls-1" d="M48.92,75.16A37.17,37.17,0,1,1,86.08,38,37.16,37.16,0,0,1,48.92,75.16"/><path class="cls-2" d="M72.66,40.2l-37.78.49h-15a.71.71,0,0,1-.68-1l5.94-10.1a9.32,9.32,0,0,0,1-4.84V9.25a5.56,5.56,0,0,1,5.6-5.49H69.38"/><path class="cls-2" d="M72.15,40.21l4.66-.08a5.5,5.5,0,0,0,5.53-5.49V9.25a5.56,5.56,0,0,0-5.59-5.49H69.38"/><path class="cls-3" d="M44.73,29.35l-9-9a1.39,1.39,0,0,1,0-2l2-2a1.39,1.39,0,0,1,2,0l6.08,6.08,13-13a1.39,1.39,0,0,1,2,0l2,2a1.37,1.37,0,0,1,0,2l-16,16a1.39,1.39,0,0,1-2,0Z"/><path class="cls-4" d="M21.17,78.92H87.36a4.82,4.82,0,0,0,5.07-4.52V52a.24.24,0,0,0-.25-.22H1.44a.24.24,0,0,0-.25.22V74.4a4.82,4.82,0,0,0,5.07,4.52h6.41M92.35,51.77,84,33.07a1.63,1.63,0,0,0-1.5-.9h-1.4m-68.49,0H11.15a1.64,1.64,0,0,0-1.5.9l-8.4,18.7"/><path class="cls-4" d="M67.47,36.6l-36.86.48H15.94a.69.69,0,0,1-.66-1l5.8-9.86a9.09,9.09,0,0,0,1-4.72V6.39A5.43,5.43,0,0,1,27.51,1H64.27"/><path class="cls-4" d="M76.91,9.06V6.39A5.43,5.43,0,0,0,71.46,1l-5.15,0-2,0"/><path class="cls-4" d="M67,36.6l4.55-.07a5.37,5.37,0,0,0,5.39-5.36V15.8"/><line class="cls-4" x1="12.67" y1="44.55" x2="78.07" y2="44.55"/></svg>