<svg id="Layer_1" data-name="Layer 1" xmlns="http://www.w3.org/2000/svg" viewBox="0 0 105.47 80"><defs><style>.cls-1{fill:#ecd5f7;}.cls-2{fill:#b684d3;}.cls-3{fill:none;stroke:#72338c;stroke-linecap:round;stroke-miterlimit:10;stroke-width:2px;}</style></defs><path class="cls-1" d="M52.5,77.82A37.16,37.16,0,1,1,89.66,40.66,37.17,37.17,0,0,1,52.5,77.82"/><path class="cls-2" d="M63.78,28.32h-11V24.09a2.54,2.54,0,0,0-2.54-2.54H21.49A2.53,2.53,0,0,0,19,24.09v4.23H8a2.53,2.53,0,0,0-2.54,2.54v5.92c0,7,8.24,13.92,18.17,15a23.35,23.35,0,0,0,7.2,7.78v7.62H25.72C22,67.23,19,69.42,19,73.15v1.27a1.27,1.27,0,0,0,1.27,1.26h31.3a1.28,1.28,0,0,0,1.27-1.26V73.15c0-3.73-3-5.92-6.77-5.92H40.94V59.61a23.35,23.35,0,0,0,7.2-7.78c10-1.14,18.18-8,18.18-15V30.86A2.53,2.53,0,0,0,63.78,28.32ZM12.19,36.78V35.09H19a38.17,38.17,0,0,0,1.36,9.11C15.31,42.47,12.19,38.92,12.19,36.78Zm47.36,0c0,2.13-3.11,5.69-8.14,7.42a37.7,37.7,0,0,0,1.35-9.11h6.79Zm-13.46.49-4.18,4.09,1,5.77a1.27,1.27,0,0,1-1.84,1.33l-5.18-2.73L30.7,48.46a1.27,1.27,0,0,1-1.84-1.33l1-5.77-4.18-4.09a1.27,1.27,0,0,1,.7-2.16l5.8-.85L34.76,29A1.27,1.27,0,0,1,37,29l2.59,5.24,5.8.85a1.27,1.27,0,0,1,.67,2.16Z"/><path class="cls-3" d="M13.72,52.21a25.57,25.57,0,0,0,7.34,2A23.48,23.48,0,0,0,28.26,62v7.61H23.18c-3.73,0-6.76,2.19-6.76,5.92v1.27A1.27,1.27,0,0,0,17.69,78H49a1.27,1.27,0,0,0,1.27-1.27V75.5c0-3.73-3-5.92-6.77-5.92H38.41V62a23.48,23.48,0,0,0,7.2-7.78c10-1.15,18.17-8,18.17-15.06V37.44M43,23.91H19a2.53,2.53,0,0,0-2.53,2.53v4.23h-11a2.53,2.53,0,0,0-2.54,2.54v5.92c0,3.41,1.94,6.79,5.07,9.49m1.7-9.49V37.44h6.79a37.62,37.62,0,0,0,1.35,9.11C12.77,44.82,9.65,41.28,9.65,39.13Zm47.37,0c0,2.14-3.11,5.69-8.15,7.42a38.09,38.09,0,0,0,1.36-9.11H57Zm-13.46.5-4.19,4.08,1,5.77a1.27,1.27,0,0,1-1.84,1.33l-5.18-2.72-5.18,2.72a1.27,1.27,0,0,1-1.84-1.33l1-5.77-4.19-4.08a1.27,1.27,0,0,1,.71-2.17l5.79-.85,2.59-5.24a1.27,1.27,0,0,1,2.28,0l2.59,5.24,5.79.85a1.28,1.28,0,0,1,.68,2.17Z"/><line class="cls-3" x1="1.04" y1="21.55" x2="6.89" y2="23.17"/><line class="cls-3" x1="9.2" y1="13.44" x2="12.19" y2="18.72"/><line class="cls-3" x1="20.34" y1="10.62" x2="18.72" y2="16.47"/><path class="cls-3" d="M95.65,32.48l-39.86.42H42.9a.61.61,0,0,1-.58-.89l5.1-8.67a8,8,0,0,0,.85-4.15V5.92a4.77,4.77,0,0,1,4.8-4.71H83.64"/><path class="cls-3" d="M95.21,32.49l4-.07A4.72,4.72,0,0,0,104,27.71V5.92a4.77,4.77,0,0,0-4.8-4.71H92.84"/><line class="cls-3" x1="57.56" y1="10.62" x2="94.21" y2="10.62"/><line class="cls-3" x1="57.56" y1="17.72" x2="83.64" y2="17.72"/><line class="cls-3" x1="57.56" y1="24.85" x2="89.13" y2="24.85"/></svg>