<svg id="Layer_1" data-name="Layer 1" xmlns="http://www.w3.org/2000/svg" viewBox="0 0 94.95 80"><defs><style>.cls-1{fill:#f7d7cb;}.cls-2{fill:#ef9067;}.cls-3{fill:none;stroke:#cc5519;stroke-linecap:round;stroke-miterlimit:10;stroke-width:2px;}</style></defs><path class="cls-1" d="M47.68,77.1A37.17,37.17,0,1,1,84.84,39.93,37.17,37.17,0,0,1,47.68,77.1"/><path class="cls-2" d="M49.38,16.86H41l3.11-9.47a1.76,1.76,0,0,0-1.69-2.2H31.88a1.76,1.76,0,0,0-1.74,1.52l-2.33,17.5a1.75,1.75,0,0,0,1.73,2H38.2L34.84,40.38a1.75,1.75,0,0,0,3.21,1.28L50.89,19.49A1.75,1.75,0,0,0,49.38,16.86Z"/><path class="cls-3" d="M33.1,13.26,32,21.2a1.69,1.69,0,0,0,1.68,1.92h8.39L38.85,36.86A1.69,1.69,0,0,0,42,38.1L54.4,16.62a1.7,1.7,0,0,0-1.46-2.55H44.78l3-9.17a1.7,1.7,0,0,0-1.64-2.13H36A1.69,1.69,0,0,0,34.3,4.24l-.74,5.53"/><polyline class="cls-3" points="53.6 23.7 83.26 23.7 83.26 42.16"/><polyline class="cls-3" points="35.11 29.49 19.57 29.49 19.57 52.77"/><polyline class="cls-3" points="48.05 37.95 48.05 46.88 58.07 46.88 58.07 58.74"/><path class="cls-3" d="M12,61.18a8.23,8.23,0,1,1-.56,4.38"/><path class="cls-3" d="M86.84,49.85l-2.39-4.14a1.37,1.37,0,0,0-2.37,0L74.72,58.46a1.36,1.36,0,0,0,1.18,2H90.62a1.37,1.37,0,0,0,1.19-2L88.66,53"/><path class="cls-3" d="M58.07,78.17H51a1.12,1.12,0,0,1-1.11-1.12V62.84A1.11,1.11,0,0,1,51,61.73H65.17a1.12,1.12,0,0,1,1.12,1.11V77.05a1.13,1.13,0,0,1-1.12,1.12H61.88"/></svg>