<svg id="Layer_1" data-name="Layer 1" xmlns="http://www.w3.org/2000/svg" viewBox="0 0 80 80"><defs><style>.cls-1{fill:#cceaff;}.cls-2{fill:#63c7ea;}.cls-3{fill:none;stroke:#1f7eb2;stroke-linecap:round;stroke-miterlimit:10;stroke-width:2px;}</style></defs><path class="cls-1" d="M40,76.92A37.17,37.17,0,1,1,77.15,39.76,37.16,37.16,0,0,1,40,76.92"/><rect class="cls-2" x="11.21" y="17.72" width="45.53" height="56.18" rx="3.44"/><path class="cls-3" d="M75.31,66.13v9.48A3.34,3.34,0,0,1,72,78.94H20a3.34,3.34,0,0,1-3.33-3.33V33.9"/><path class="cls-3" d="M36.12,7.21H72a3.34,3.34,0,0,1,3.33,3.33V60.47"/><rect class="cls-3" x="38.17" y="28.03" width="30.14" height="7.74" rx="0.39"/><line class="cls-3" x1="24.08" y1="35.76" x2="32.36" y2="35.76"/><rect class="cls-3" x="38.17" y="46" width="30.14" height="7.74" rx="0.39"/><line class="cls-3" x1="24.08" y1="53.74" x2="32.36" y2="53.74"/><rect class="cls-3" x="38.17" y="62.92" width="30.14" height="7.74" rx="0.39"/><line class="cls-3" x1="24.08" y1="70.66" x2="32.36" y2="70.66"/><line class="cls-3" x1="38.17" y1="15.27" x2="75.31" y2="15.27"/><circle class="cls-3" cx="19.99" cy="16.05" r="13.99"/><line class="cls-3" x1="6" y1="16.05" x2="33.98" y2="16.05"/><line class="cls-3" x1="7.97" y1="8.89" x2="31.34" y2="8.89"/><line class="cls-3" x1="7.97" y1="23.22" x2="31.34" y2="23.22"/><path class="cls-3" d="M16.83,2.85s-8.1,13.28,0,26.56"/><path class="cls-3" d="M23,2.85s8.1,13.28,0,26.56"/></svg>